<svg width="20" height="19" viewBox="0 0 20 19" fill="none" xmlns="http://www.w3.org/2000/svg">
<rect width="19" height="19" transform="translate(0.658936)" fill="white"/>
<path d="M18.0755 9.50001C18.0755 10.5396 17.8708 11.5691 17.4729 12.5296C17.0751 13.4901 16.4919 14.3628 15.7568 15.0979C15.0217 15.8331 14.1489 16.4162 13.1884 16.8141C12.2279 17.2119 11.1985 17.4167 10.1589 17.4167C9.11922 17.4167 8.08977 17.2119 7.12928 16.8141C6.16878 16.4162 5.29606 15.8331 4.56093 15.0979C3.82579 14.3628 3.24266 13.4901 2.84481 12.5296C2.44696 11.5691 2.24219 10.5396 2.24219 9.50001C2.24219 8.46038 2.44696 7.43093 2.84481 6.47043C3.24266 5.50994 3.8258 4.63721 4.56093 3.90208C5.29606 3.16695 6.16878 2.58381 7.12928 2.18596C8.08977 1.78811 9.11922 1.58334 10.1589 1.58334C11.1985 1.58334 12.2279 1.78811 13.1884 2.18596C14.1489 2.58381 15.0217 3.16695 15.7568 3.90208C16.4919 4.63721 17.0751 5.50994 17.4729 6.47043C17.8708 7.43093 18.0755 8.46038 18.0755 9.50001L18.0755 9.50001Z" stroke="#898989" stroke-width="1.1875"/>
<path d="M13.3255 9.50001C13.3255 10.5396 13.2436 11.5691 13.0845 12.5296C12.9253 13.4901 12.6921 14.3628 12.398 15.0979C12.104 15.8331 11.7549 16.4162 11.3707 16.8141C10.9865 17.2119 10.5747 17.4167 10.1589 17.4167C9.743 17.4167 9.33122 17.2119 8.94702 16.8141C8.56283 16.4162 8.21373 15.8331 7.91968 15.0979C7.62563 14.3628 7.39238 13.4901 7.23324 12.5296C7.0741 11.5691 6.99219 10.5396 6.99219 9.50001C6.99219 8.46038 7.0741 7.43093 7.23324 6.47043C7.39238 5.50994 7.62563 4.63721 7.91968 3.90208C8.21374 3.16695 8.56283 2.58381 8.94702 2.18596C9.33122 1.78811 9.743 1.58334 10.1589 1.58334C10.5747 1.58334 10.9865 1.78811 11.3707 2.18596C11.7549 2.58381 12.104 3.16695 12.398 3.90208C12.6921 4.63721 12.9253 5.50994 13.0845 6.47043C13.2436 7.43093 13.3255 8.46038 13.3255 9.50001L13.3255 9.50001Z" stroke="#898989" stroke-width="1.1875"/>
<path d="M2.24219 9.5H18.0755" stroke="#898989" stroke-width="1.1875" stroke-linecap="round"/>
</svg>
