<svg width="20" height="19" viewBox="0 0 20 19" fill="none" xmlns="http://www.w3.org/2000/svg">
<path d="M2.24219 9.49999C2.24219 6.51443 2.24219 5.02165 3.16968 4.09415C4.09718 3.16666 5.58996 3.16666 8.57552 3.16666H11.7422C14.7277 3.16666 16.2205 3.16666 17.148 4.09415C18.0755 5.02165 18.0755 6.51443 18.0755 9.49999C18.0755 12.4856 18.0755 13.9783 17.148 14.9058C16.2205 15.8333 14.7277 15.8333 11.7422 15.8333H8.57552C5.58996 15.8333 4.09718 15.8333 3.16968 14.9058C2.24219 13.9783 2.24219 12.4856 2.24219 9.49999Z" stroke="#898989" stroke-width="1.1875"/>
<path d="M5.40894 6.33334L7.11806 7.75762C8.57206 8.96928 9.29907 9.57512 10.1589 9.57512C11.0188 9.57512 11.7458 8.96928 13.1998 7.75761L14.9089 6.33334" stroke="#898989" stroke-width="1.1875" stroke-linecap="round"/>
</svg>
