<svg width="17" height="17" viewBox="0 0 17 17" fill="none" xmlns="http://www.w3.org/2000/svg">
<path d="M12.3842 12.46C11.2445 13.3287 9.85689 13.8099 8.42415 13.8333C3.75749 13.8333 1.09082 8.49999 1.09082 8.49999C1.92008 6.95459 3.07024 5.60439 4.46415 4.53999M7.02415 3.32666C7.48304 3.21924 7.95286 3.16555 8.42415 3.16666C13.0908 3.16666 15.7575 8.49999 15.7575 8.49999C15.3528 9.25706 14.8702 9.96981 14.3175 10.6267M9.83749 9.91332C9.65439 10.1098 9.43359 10.2674 9.18825 10.3767C8.94292 10.486 8.67809 10.5448 8.40955 10.5496C8.14101 10.5543 7.87426 10.5049 7.62523 10.4043C7.37619 10.3037 7.14997 10.154 6.96005 9.96409C6.77013 9.77418 6.62042 9.54795 6.51983 9.29892C6.41924 9.04988 6.36984 8.78314 6.37458 8.5146C6.37931 8.24605 6.43809 7.98122 6.5474 7.73589C6.65672 7.49056 6.81432 7.26976 7.01082 7.08666M1.09082 1.16666L15.7575 15.8333" stroke="#898989" stroke-linecap="round" stroke-linejoin="round"/>
</svg>
