<svg width="18" height="18" viewBox="0 0 18 18" fill="none" xmlns="http://www.w3.org/2000/svg">
<path d="M15.0435 7.29191C15.7549 6.89143 16.1106 6.6912 16.3053 6.36856C16.5 6.04593 16.5 5.65674 16.5 4.87836V4.361C16.5 3.36586 16.5 2.8683 16.1705 2.55915C15.841 2.25 15.3107 2.25 14.25 2.25H3.75C2.68934 2.25 2.15901 2.25 1.8295 2.55915C1.5 2.8683 1.5 3.36586 1.5 4.361V4.87836C1.5 5.65674 1.5 6.04593 1.6947 6.36856C1.8894 6.6912 2.2451 6.89143 2.95651 7.29191L5.14128 8.52179C5.6186 8.79048 5.85725 8.92483 6.02813 9.07318C6.38399 9.38212 6.60306 9.74514 6.70233 10.1904C6.75 10.4042 6.75 10.6544 6.75 11.1547L6.75 13.1568C6.75 13.839 6.75 14.1801 6.93894 14.446C7.12789 14.7119 7.46346 14.8431 8.13462 15.1054C9.54359 15.6562 10.2481 15.9316 10.749 15.6183C11.25 15.3049 11.25 14.5889 11.25 13.1568V11.1547C11.25 10.6544 11.25 10.4042 11.2977 10.1904C11.3969 9.74514 11.616 9.38212 11.9719 9.07318" stroke="#737373" stroke-width="1.125" stroke-linecap="round"/>
</svg>
