<svg width="24" height="25" viewBox="0 0 24 25" fill="none" xmlns="http://www.w3.org/2000/svg">
<circle cx="16" cy="8.5" r="2" stroke="#B2B2B2" stroke-width="1.5"/>
<path d="M2 13.0001L3.75159 11.4675C4.66286 10.6702 6.03628 10.7159 6.89249 11.5721L11.1822 15.8618C11.8694 16.5491 12.9512 16.6428 13.7464 16.0839L14.0446 15.8744C15.1888 15.0702 16.7369 15.1634 17.7765 16.099L21 19.0001" stroke="#B2B2B2" stroke-width="1.5" stroke-linecap="round"/>
<path d="M22 12.5C22 17.214 22 19.5711 20.5355 21.0355C19.0711 22.5 16.714 22.5 12 22.5C7.28595 22.5 4.92893 22.5 3.46447 21.0355C2 19.5711 2 17.214 2 12.5C2 7.78595 2 5.42893 3.46447 3.96447C4.92893 2.5 7.28595 2.5 12 2.5C16.714 2.5 19.0711 2.5 20.5355 3.96447C21.5093 4.93821 21.8356 6.30655 21.9449 8.5" stroke="#B2B2B2" stroke-width="1.5" stroke-linecap="round"/>
</svg>
