<svg width="21" height="20" viewBox="0 0 21 20" fill="none" xmlns="http://www.w3.org/2000/svg">
<path fill-rule="evenodd" clip-rule="evenodd" d="M0.701085 5.82274C0.181885 6.77128 0.181885 7.91549 0.181885 10.2039V11.725C0.181885 15.6258 0.181885 17.5763 1.35346 18.7881C2.52503 20 4.41065 20 8.18188 20H12.1819C15.9531 20 17.8387 20 19.0103 18.7881C20.1819 17.5763 20.1819 15.6258 20.1819 11.725V10.2039C20.1819 7.91549 20.1819 6.77128 19.6627 5.82274C19.1435 4.87421 18.1949 4.28551 16.2978 3.10812L14.2979 1.86687C12.2925 0.62229 11.2898 0 10.1819 0C9.07395 0 8.07127 0.62229 6.06592 1.86687L4.06592 3.10813C2.16883 4.28551 1.22029 4.87421 0.701085 5.82274ZM9.43188 16C9.43188 16.4142 9.76767 16.75 10.1819 16.75C10.5961 16.75 10.9319 16.4142 10.9319 16V13C10.9319 12.5858 10.5961 12.25 10.1819 12.25C9.76767 12.25 9.43188 12.5858 9.43188 13V16Z" fill="#007AFF"/>
</svg>
