<svg width="20" height="20" viewBox="0 0 20 20" fill="none" xmlns="http://www.w3.org/2000/svg">
<g clip-path="url(#clip0_1618_2835)">
<path d="M6.66602 9.66602C6.85 9.66602 6.99982 9.81508 7 9.99902C7 10.1831 6.85011 10.333 6.66602 10.333C6.48207 10.3328 6.33301 10.183 6.33301 9.99902C6.33318 9.81519 6.48218 9.66619 6.66602 9.66602ZM10 9.66602C10.1838 9.66619 10.3328 9.81519 10.333 9.99902C10.333 10.183 10.1839 10.3328 10 10.333C9.8159 10.333 9.66602 10.1831 9.66602 9.99902C9.66619 9.81508 9.81601 9.66602 10 9.66602ZM13.333 9.66602C13.517 9.66602 13.6658 9.81508 13.666 9.99902C13.666 10.1831 13.5171 10.333 13.333 10.333C13.1489 10.333 13 10.1831 13 9.99902C13.0002 9.81508 13.149 9.66602 13.333 9.66602Z" fill="#9988FF" stroke="#9988FF"/>
<path d="M9.99967 18.3327C14.602 18.3327 18.333 14.6017 18.333 9.99935C18.333 5.39698 14.602 1.66602 9.99967 1.66602C5.3973 1.66602 1.66634 5.39698 1.66634 9.99935C1.66634 11.3324 1.97935 12.5924 2.53589 13.7097C2.68379 14.0067 2.73301 14.3461 2.64727 14.6665L2.15093 16.5216C1.93547 17.3268 2.67219 18.0636 3.47746 17.8481L5.3325 17.3518C5.65295 17.266 5.99235 17.3152 6.28928 17.4631C7.40665 18.0197 8.66661 18.3327 9.99967 18.3327Z" stroke="#9988FF" stroke-width="1.5"/>
</g>
<defs>
<clipPath id="clip0_1618_2835">
<rect width="20" height="20" fill="white"/>
</clipPath>
</defs>
</svg>
