<svg width="24" height="25" viewBox="0 0 24 25" fill="none" xmlns="http://www.w3.org/2000/svg">
<path d="M7 3.83782C8.47087 2.98697 10.1786 2.5 12 2.5C17.5228 2.5 22 6.97715 22 12.5C22 13.1477 21.7004 13.7503 21.2424 14.2083L13.7083 21.7424C13.2503 22.2004 12.6477 22.5 12 22.5C6.47715 22.5 2 18.0228 2 12.5C2 10.6786 2.48697 8.97087 3.33782 7.5" stroke="#B2B2B2" stroke-width="1.5" stroke-linecap="round"/>
<path d="M12 17.5C10.8846 17.5 9.85038 17.1303 9 16.5" stroke="#B2B2B2" stroke-width="1.5" stroke-linecap="round"/>
<path d="M15 10C15.057 10 15.1696 10.0347 15.291 10.2168C15.41 10.3954 15.5 10.6708 15.5 11C15.5 11.3292 15.41 11.6046 15.291 11.7832C15.1696 11.9653 15.057 12 15 12C14.943 12 14.8304 11.9653 14.709 11.7832C14.59 11.6046 14.5 11.3292 14.5 11C14.5 10.6708 14.59 10.3954 14.709 10.2168C14.8304 10.0347 14.943 10 15 10Z" fill="#B2B2B2" stroke="#B2B2B2"/>
<path d="M9 10C9.05695 10 9.16965 10.0347 9.29102 10.2168C9.41004 10.3954 9.5 10.6708 9.5 11C9.5 11.3292 9.41004 11.6046 9.29102 11.7832C9.16965 11.9653 9.05695 12 9 12C8.94305 12 8.83035 11.9653 8.70898 11.7832C8.58996 11.6046 8.5 11.3292 8.5 11C8.5 10.6708 8.58996 10.3954 8.70898 10.2168C8.83035 10.0347 8.94305 10 9 10Z" fill="#222222" stroke="#B2B2B2"/>
<path d="M12 22.5C12 19.7071 12 18.3107 12.3928 17.188C13.0964 15.1773 14.6773 13.5964 16.688 12.8928C17.8107 12.5 19.2071 12.5 22 12.5" stroke="#B2B2B2" stroke-width="1.5"/>
</svg>
