<svg width="27" height="28" viewBox="0 0 27 28" fill="none" xmlns="http://www.w3.org/2000/svg">
<path fill-rule="evenodd" clip-rule="evenodd" d="M13.4999 27.3333C20.8637 27.3333 26.8333 21.3637 26.8333 13.9999C26.8333 6.63612 20.8637 0.666587 13.4999 0.666587C6.13612 0.666586 0.166586 6.63612 0.166585 13.9999C0.166585 21.3637 6.13612 27.3333 13.4999 27.3333ZM14.53 18.5745L17.2168 16.435C18.344 15.5373 18.9076 15.0885 18.7976 14.5874L18.7917 14.5626C18.6664 14.0645 17.952 13.8731 16.5231 13.4902C15.7291 13.2775 15.3321 13.1711 15.1459 12.8702L15.1363 12.8543C14.9566 12.5498 15.0588 12.1683 15.2633 11.4054L15.3167 11.2061C15.8835 9.09092 16.1669 8.03334 15.6211 7.6918C15.0753 7.35025 14.207 8.04175 12.4702 9.42475L9.78351 11.5643C8.65627 12.4619 8.09266 12.9107 8.20267 13.4119L8.20852 13.4367C8.33385 13.9347 9.04828 14.1262 10.4771 14.509C11.2711 14.7218 11.6681 14.8281 11.8544 15.1291L11.864 15.1449C12.0436 15.4495 11.9414 15.8309 11.737 16.5938L11.6836 16.7933C11.1168 18.9084 10.8334 19.966 11.3792 20.3075C11.925 20.649 12.7933 19.9575 14.53 18.5745Z" fill="url(#paint0_linear_1382_515)"/>
<defs>
<linearGradient id="paint0_linear_1382_515" x1="13.4999" y1="0.666585" x2="13.4999" y2="27.3333" gradientUnits="userSpaceOnUse">
<stop stop-color="#AE22FF"/>
<stop offset="1" stop-color="#FFD176"/>
</linearGradient>
</defs>
</svg>
