<svg width="32" height="32" viewBox="0 0 32 32" fill="none" xmlns="http://www.w3.org/2000/svg">
<path d="M25.3333 12.9389V12.0001C25.3333 6.84542 21.1547 2.66675 16 2.66675C10.8453 2.66675 6.66667 6.84542 6.66667 12.0001V12.9389C6.66667 14.0655 6.33318 15.167 5.70823 16.1044L4.17675 18.4016C2.77791 20.4999 3.84581 23.352 6.27876 24.0155C12.6434 25.7513 19.3566 25.7513 25.7213 24.0155C28.1542 23.352 29.2221 20.4999 27.8233 18.4016L26.2918 16.1044C25.6668 15.167 25.3333 14.0655 25.3333 12.9389Z" stroke="#737373" stroke-width="2"/>
<path d="M10 25.3333C10.8734 27.6636 13.2299 29.3333 16 29.3333C18.7701 29.3333 21.1266 27.6636 22 25.3333" stroke="#737373" stroke-width="2" stroke-linecap="round"/>
</svg>
