<svg width="25" height="25" viewBox="0 0 25 25" fill="none" xmlns="http://www.w3.org/2000/svg">
<path d="M6.5 9C6.77614 9 7 9.22386 7 9.5C7 9.77614 6.77614 10 6.5 10C6.22386 10 6 9.77614 6 9.5C6 9.22386 6.22386 9 6.5 9Z" fill="#737373" stroke="#737373"/>
<path d="M6.5 12C6.77614 12 7 12.2239 7 12.5C7 12.7761 6.77614 13 6.5 13C6.22386 13 6 12.7761 6 12.5C6 12.2239 6.22386 12 6.5 12Z" fill="#737373" stroke="#737373"/>
<path d="M9.5 12C9.77614 12 10 12.2239 10 12.5C10 12.7761 9.77614 13 9.5 13C9.22386 13 9 12.7761 9 12.5C9 12.2239 9.22386 12 9.5 12Z" fill="#737373" stroke="#737373"/>
<path d="M9.5 9C9.77614 9 10 9.22386 10 9.5C10 9.77614 9.77614 10 9.5 10C9.22386 10 9 9.77614 9 9.5C9 9.22386 9.22386 9 9.5 9Z" fill="#737373" stroke="#737373"/>
<path d="M12.5 9C12.7761 9 13 9.22386 13 9.5C13 9.77614 12.7761 10 12.5 10C12.2239 10 12 9.77614 12 9.5C12 9.22386 12.2239 9 12.5 9Z" fill="#737373" stroke="#737373"/>
<path d="M13.5 12.5C13.5 13.0523 13.0523 13.5 12.5 13.5C11.9477 13.5 11.5 13.0523 11.5 12.5C11.5 11.9477 11.9477 11.5 12.5 11.5C13.0523 11.5 13.5 11.9477 13.5 12.5Z" fill="#737373"/>
<path d="M16.5 9.5C16.5 10.0523 16.0523 10.5 15.5 10.5C14.9477 10.5 14.5 10.0523 14.5 9.5C14.5 8.94772 14.9477 8.5 15.5 8.5C16.0523 8.5 16.5 8.94772 16.5 9.5Z" fill="#737373"/>
<path d="M16.5 12.5C16.5 13.0523 16.0523 13.5 15.5 13.5C14.9477 13.5 14.5 13.0523 14.5 12.5C14.5 11.9477 14.9477 11.5 15.5 11.5C16.0523 11.5 16.5 11.9477 16.5 12.5Z" fill="#737373"/>
<path d="M19.5 9.5C19.5 10.0523 19.0523 10.5 18.5 10.5C17.9477 10.5 17.5 10.0523 17.5 9.5C17.5 8.94772 17.9477 8.5 18.5 8.5C19.0523 8.5 19.5 8.94772 19.5 9.5Z" fill="#737373"/>
<path d="M19.5 12.5C19.5 13.0523 19.0523 13.5 18.5 13.5C17.9477 13.5 17.5 13.0523 17.5 12.5C17.5 11.9477 17.9477 11.5 18.5 11.5C19.0523 11.5 19.5 11.9477 19.5 12.5Z" fill="#737373"/>
<path d="M2.5 11.5C2.5 8.67157 2.5 7.25736 3.37868 6.37868C4.25736 5.5 5.67157 5.5 8.5 5.5H16.5C19.3284 5.5 20.7426 5.5 21.6213 6.37868C22.5 7.25736 22.5 8.67157 22.5 11.5V13.5C22.5 16.3284 22.5 17.7426 21.6213 18.6213C20.7426 19.5 19.3284 19.5 16.5 19.5H8.5C5.67157 19.5 4.25736 19.5 3.37868 18.6213C2.5 17.7426 2.5 16.3284 2.5 13.5V11.5Z" stroke="#737373" stroke-width="1.5"/>
<path d="M7.5 16.5H17.5" stroke="#737373" stroke-width="1.5" stroke-linecap="round"/>
</svg>
