<svg width="25" height="24" viewBox="0 0 25 24" fill="none" xmlns="http://www.w3.org/2000/svg">
<path fill-rule="evenodd" clip-rule="evenodd" d="M17.6816 2.75C18.0959 2.75 18.4316 3.08579 18.4316 3.5V5.75H20.6816C21.0959 5.75 21.4316 6.08579 21.4316 6.5C21.4316 6.91421 21.0959 7.25 20.6816 7.25H18.4316V9.5C18.4316 9.91421 18.0959 10.25 17.6816 10.25C17.2674 10.25 16.9316 9.91421 16.9316 9.5V7.25H14.6816C14.2674 7.25 13.9316 6.91421 13.9316 6.5C13.9316 6.08579 14.2674 5.75 14.6816 5.75H16.9316V3.5C16.9316 3.08579 17.2674 2.75 17.6816 2.75Z" fill="#007AFF"/>
<path d="M2.18164 6.5C2.18164 4.37868 2.18164 3.31802 2.84065 2.65901C3.49966 2 4.56032 2 6.68164 2C8.80296 2 9.86362 2 10.5226 2.65901C11.1816 3.31802 11.1816 4.37868 11.1816 6.5C11.1816 8.62132 11.1816 9.68198 10.5226 10.341C9.86362 11 8.80296 11 6.68164 11C4.56032 11 3.49966 11 2.84065 10.341C2.18164 9.68198 2.18164 8.62132 2.18164 6.5Z" fill="#007AFF"/>
<path d="M13.1816 17.5C13.1816 15.3787 13.1816 14.318 13.8407 13.659C14.4997 13 15.5603 13 17.6816 13C19.803 13 20.8636 13 21.5226 13.659C22.1816 14.318 22.1816 15.3787 22.1816 17.5C22.1816 19.6213 22.1816 20.682 21.5226 21.341C20.8636 22 19.803 22 17.6816 22C15.5603 22 14.4997 22 13.8407 21.341C13.1816 20.682 13.1816 19.6213 13.1816 17.5Z" fill="#007AFF"/>
<path d="M2.18164 17.5C2.18164 15.3787 2.18164 14.318 2.84065 13.659C3.49966 13 4.56032 13 6.68164 13C8.80296 13 9.86362 13 10.5226 13.659C11.1816 14.318 11.1816 15.3787 11.1816 17.5C11.1816 19.6213 11.1816 20.682 10.5226 21.341C9.86362 22 8.80296 22 6.68164 22C4.56032 22 3.49966 22 2.84065 21.341C2.18164 20.682 2.18164 19.6213 2.18164 17.5Z" fill="#007AFF"/>
</svg>
