<svg width="25" height="24" viewBox="0 0 25 24" fill="none" xmlns="http://www.w3.org/2000/svg">
<path d="M14.6824 6.5H17.6824M17.6824 6.5H20.6824M17.6824 6.5V9.5M17.6824 6.5V3.5" stroke="#333333" stroke-width="1.52344" stroke-linecap="round"/>
<path d="M2.68237 6.5C2.68237 4.61438 2.68237 3.67157 3.26816 3.08579C3.85395 2.5 4.79676 2.5 6.68237 2.5C8.56799 2.5 9.5108 2.5 10.0966 3.08579C10.6824 3.67157 10.6824 4.61438 10.6824 6.5C10.6824 8.38562 10.6824 9.32843 10.0966 9.91421C9.5108 10.5 8.56799 10.5 6.68237 10.5C4.79676 10.5 3.85395 10.5 3.26816 9.91421C2.68237 9.32843 2.68237 8.38562 2.68237 6.5Z" stroke="#303030" stroke-width="1.52344"/>
<path d="M13.6816 17.5C13.6816 15.6144 13.6816 14.6716 14.2674 14.0858C14.8532 13.5 15.796 13.5 17.6816 13.5C19.5673 13.5 20.5101 13.5 21.0959 14.0858C21.6816 14.6716 21.6816 15.6144 21.6816 17.5C21.6816 19.3856 21.6816 20.3284 21.0959 20.9142C20.5101 21.5 19.5673 21.5 17.6816 21.5C15.796 21.5 14.8532 21.5 14.2674 20.9142C13.6816 20.3284 13.6816 19.3856 13.6816 17.5Z" stroke="#303030" stroke-width="1.52344"/>
<path d="M2.68237 17.5C2.68237 15.6144 2.68237 14.6716 3.26816 14.0858C3.85395 13.5 4.79676 13.5 6.68237 13.5C8.56799 13.5 9.5108 13.5 10.0966 14.0858C10.6824 14.6716 10.6824 15.6144 10.6824 17.5C10.6824 19.3856 10.6824 20.3284 10.0966 20.9142C9.5108 21.5 8.56799 21.5 6.68237 21.5C4.79676 21.5 3.85395 21.5 3.26816 20.9142C2.68237 20.3284 2.68237 19.3856 2.68237 17.5Z" stroke="#303030" stroke-width="1.52344"/>
</svg>
