<svg width="25" height="25" viewBox="0 0 25 25" fill="none" xmlns="http://www.w3.org/2000/svg">
<path d="M3.83946 17.4997C6.60089 22.2826 12.7168 23.9214 17.4997 21.16C19.4493 20.0344 20.8765 18.3514 21.6962 16.4286C22.8875 13.6341 22.7958 10.333 21.16 7.49972C19.5242 4.6664 16.7112 2.93642 13.6955 2.57088C11.6204 2.31935 9.44932 2.71386 7.49972 3.83946C2.71679 6.60089 1.07804 12.7168 3.83946 17.4997Z" stroke="#737373" stroke-width="1.5"/>
<path d="M17.4493 21.0742C17.4493 21.0742 16.5103 14.483 14.5 11.001C12.4897 7.51895 7.5498 3.92773 7.5498 3.92773" stroke="#737373" stroke-width="1.5" stroke-linecap="round"/>
<path d="M22.3638 13.0803C16.9528 11.8933 9.55903 16.848 8.07739 21.3177" stroke="#737373" stroke-width="1.5" stroke-linecap="round"/>
<path d="M16.9141 3.70982C15.4262 8.13087 8.17443 13.0131 2.78877 11.9525" stroke="#737373" stroke-width="1.5" stroke-linecap="round"/>
</svg>
