<svg width="25" height="25" viewBox="0 0 25 25" fill="none" xmlns="http://www.w3.org/2000/svg">
<path d="M22.5 16.5C22.5 19.3284 22.5 20.7426 21.6213 21.6213C20.7426 22.5 19.3284 22.5 16.5 22.5L8.5 22.5C5.67157 22.5 4.25736 22.5 3.37868 21.6213C2.5 20.7426 2.5 19.3284 2.5 16.5L2.5 12.5C2.5 9.67157 2.5 8.25736 3.37868 7.37868C4.25736 6.5 5.67157 6.5 8.5 6.5L16.5 6.5C19.3284 6.5 20.7426 6.5 21.6213 7.37868C22.5 8.25736 22.5 9.67157 22.5 12.5V16.5Z" stroke="#737373" stroke-width="1.5"/>
<path d="M9.5 2.5L12.5 6L15.5 2.5" stroke="#737373" stroke-width="1.5" stroke-linecap="round"/>
<path d="M16.5 6.5V22.5" stroke="#737373" stroke-width="1.5" stroke-linecap="round"/>
<path d="M19.5 17C19.7761 17 20 16.7761 20 16.5C20 16.2239 19.7761 16 19.5 16C19.2239 16 19 16.2239 19 16.5C19 16.7761 19.2239 17 19.5 17Z" fill="#1C274C" stroke="#737373"/>
<path d="M19.5 13C19.7761 13 20 12.7761 20 12.5C20 12.2239 19.7761 12 19.5 12C19.2239 12 19 12.2239 19 12.5C19 12.7761 19.2239 13 19.5 13Z" fill="#1C274C" stroke="#737373"/>
</svg>
