<svg width="25" height="25" viewBox="0 0 25 25" fill="none" xmlns="http://www.w3.org/2000/svg">
<path d="M6.27667 10.7955V18.765C6.27667 20.0881 6.27667 20.7497 6.72555 21.3116C7.17443 21.8736 7.71092 21.9723 8.78392 22.1696C9.77582 22.3521 11.0325 22.5 12.5 22.5C13.9675 22.5 15.2242 22.3521 16.2161 22.1696C17.2891 21.9723 17.8256 21.8736 18.2745 21.3116C18.7233 20.7497 18.7233 20.0881 18.7233 18.765V10.7955C18.7233 10.1117 18.7233 9.76982 18.8547 9.46928C18.9861 9.16875 19.2329 8.94624 19.7264 8.50123L19.9116 8.33416C20.9679 7.3817 21.496 6.90547 21.5 6.21612C21.504 5.52677 21.0355 5.09391 20.0987 4.22818C19.9569 4.09713 19.8164 3.97455 19.6808 3.86582C19.2094 3.48797 18.5431 3.07442 18.0332 2.77565C17.556 2.49609 16.9954 2.43167 16.4656 2.57103L15.9755 2.69993C15.5874 2.802 15.2493 3.0526 15.0274 3.40278C13.8251 5.30015 11.1749 5.30015 9.97256 3.40278C9.75065 3.0526 9.41264 2.802 9.02454 2.69993L8.53445 2.57103C8.00458 2.43167 7.444 2.49609 6.96683 2.77565C6.45689 3.07442 5.79062 3.48797 5.31923 3.86582C5.18359 3.97455 5.0431 4.09713 4.90129 4.22818C3.96446 5.09391 3.49605 5.52677 3.50003 6.21612C3.504 6.90547 4.03212 7.3817 5.08835 8.33416L5.27364 8.50123C5.76714 8.94624 6.01389 9.16875 6.14528 9.46928C6.27667 9.76982 6.27667 10.1117 6.27667 10.7955Z" stroke="#737373" stroke-width="1.5" stroke-linecap="round"/>
</svg>
