<svg width="25" height="25" viewBox="0 0 25 25" fill="none" xmlns="http://www.w3.org/2000/svg">
<path d="M9.46173 19.8786L8.98914 20.461L9.46173 19.8786ZM12.5 6.07412L11.9522 6.58635C12.094 6.73803 12.2923 6.82412 12.5 6.82412C12.7077 6.82412 12.906 6.73803 13.0478 6.58635L12.5 6.07412ZM15.5383 19.8787L16.0109 20.461L15.5383 19.8787ZM12.5 21.5L12.5 20.75L12.5 21.5ZM9.46173 19.8786L9.93432 19.2963C8.48445 18.1197 6.79166 16.577 5.46771 14.8884C4.12931 13.1814 3.25 11.4289 3.25 9.8175H2.5H1.75C1.75 11.9354 2.88041 14.0196 4.28729 15.8139C5.70863 17.6267 7.49671 19.2499 8.98914 20.461L9.46173 19.8786ZM2.5 9.8175H3.25C3.25 6.91289 4.51766 5.11731 6.08602 4.50319C7.65092 3.89043 9.84039 4.32778 11.9522 6.58635L12.5 6.07412L13.0478 5.56189C10.6598 3.00784 7.84924 2.20187 5.5391 3.10645C3.23242 4.00967 1.75 6.49209 1.75 9.8175H2.5ZM15.5383 19.8787L16.0109 20.461C17.5033 19.2499 19.2914 17.6268 20.7127 15.814C22.1196 14.0196 23.25 11.9354 23.25 9.81747H22.5H21.75C21.75 11.4289 20.8707 13.1814 19.5323 14.8884C18.2084 16.577 16.5156 18.1197 15.0657 19.2963L15.5383 19.8787ZM22.5 9.81747H23.25C23.25 6.49208 21.7676 4.00966 19.4609 3.10645C17.1508 2.20187 14.3402 3.00784 11.9522 5.56189L12.5 6.07412L13.0478 6.58635C15.1596 4.32778 17.3491 3.89042 18.914 4.50319C20.4823 5.1173 21.75 6.91287 21.75 9.81747H22.5ZM9.46173 19.8786L8.98914 20.461C10.2606 21.4928 11.1423 22.25 12.5 22.25L12.5 21.5L12.5 20.75C11.7771 20.75 11.3269 20.4263 9.93432 19.2963L9.46173 19.8786ZM15.5383 19.8787L15.0657 19.2963C13.6731 20.4263 13.2229 20.75 12.5 20.75L12.5 21.5L12.5 22.25C13.8577 22.25 14.7394 21.4928 16.0109 20.461L15.5383 19.8787Z" fill="#737373"/>
<path d="M19 9.50002H17M17 9.50002L15 9.50002M17 9.50002L17 7.5M17 9.50002L17 11.5" stroke="#737373" stroke-width="1.5" stroke-linecap="round"/>
</svg>
