<svg width="25" height="25" viewBox="0 0 25 25" fill="none" xmlns="http://www.w3.org/2000/svg">
<path d="M8.12442 4.9489C10.0012 4.19796 11.1208 3.75 12.5 3.75C13.8792 3.75 14.9988 4.19796 16.8756 4.9489L19.8451 6.1367C20.7996 6.51851 21.5728 6.82776 22.1035 7.10601C22.3721 7.24683 22.6323 7.40648 22.833 7.59894C23.0392 7.79668 23.25 8.09658 23.25 8.5C23.25 8.90342 23.0392 9.20332 22.833 9.40106C22.6323 9.59352 22.3721 9.75317 22.1035 9.89399C21.5728 10.1722 20.7996 10.4815 19.8451 10.8633L16.8756 12.0511C14.9988 12.802 13.8792 13.25 12.5 13.25C11.1208 13.25 10.0012 12.802 8.12443 12.0511L5.15495 10.8633C4.20037 10.4815 3.4272 10.1722 2.89647 9.89399C2.62786 9.75317 2.36765 9.59352 2.16701 9.40106C1.96085 9.20332 1.75 8.90342 1.75 8.5C1.75 8.09658 1.96085 7.79668 2.16701 7.59894C2.36765 7.40648 2.62786 7.24683 2.89647 7.10601C3.42721 6.82776 4.20037 6.51851 5.15496 6.13669L8.12442 4.9489Z" fill="#303030"/>
<path fill-rule="evenodd" clip-rule="evenodd" d="M3.00053 11.9415C3.00053 11.9415 3.00053 11.9415 3.00053 11.9415L2.99913 11.9402L3.00261 11.9432C3.00702 11.9471 3.01522 11.9541 3.02722 11.9641C3.05123 11.9842 3.09042 12.0161 3.14479 12.0581C3.25354 12.1422 3.42289 12.2663 3.6528 12.4154C4.11265 12.7136 4.81419 13.1115 5.75737 13.4887L8.56584 14.6121C10.5907 15.422 11.4396 15.75 12.5 15.75C13.5604 15.75 14.4093 15.422 16.4342 14.6121L19.2426 13.4887C20.1858 13.1115 20.8874 12.7136 21.3472 12.4154C21.5771 12.2663 21.7465 12.1422 21.8552 12.0581C21.9096 12.0161 21.9488 11.9842 21.9728 11.9641C21.9848 11.9541 21.993 11.9471 21.9974 11.9432L21.9995 11.9415C22 11.941 22.0006 11.9405 22.0011 11.94C22.3095 11.6652 22.7823 11.6915 23.0583 11.9992C23.3349 12.3075 23.3092 12.7817 23.0008 13.0583L22.5 12.5C23.0008 13.0583 23.001 13.0581 23.0008 13.0583L22.9994 13.0595L22.9977 13.0611L22.993 13.0652L22.9793 13.0772C22.9682 13.0868 22.9532 13.0997 22.9341 13.1155C22.8961 13.1473 22.8422 13.1911 22.7724 13.245C22.6329 13.3528 22.4299 13.501 22.1634 13.6739C21.6303 14.0196 20.8424 14.4644 19.7997 14.8814L16.9912 16.0048C16.9524 16.0204 16.9138 16.0358 16.8756 16.0511C14.9988 16.802 13.8792 17.25 12.5 17.25C11.1208 17.25 10.0012 16.802 8.12442 16.0511C8.08619 16.0358 8.04763 16.0204 8.00875 16.0048L5.20029 14.8814C4.15759 14.4644 3.36971 14.0196 2.83662 13.6739C2.57005 13.501 2.36705 13.3528 2.22757 13.245C2.15782 13.1911 2.10392 13.1473 2.06587 13.1155C2.04684 13.0997 2.03177 13.0868 2.02066 13.0772L2.00696 13.0652L2.00233 13.0611L2.00057 13.0595L1.9995 13.0586C1.99934 13.0584 1.99919 13.0583 2.5 12.5L1.9995 13.0586C1.69116 12.782 1.66512 12.3075 1.94171 11.9992C2.21775 11.6915 2.69075 11.6654 2.99913 11.9402M3.00053 11.9415C3.00053 11.9415 3.00053 11.9415 3.00053 11.9415V11.9415ZM2.99896 15.9401C2.69058 15.6652 2.21775 15.6915 1.94171 15.9992L2.99896 15.9401ZM2.99896 15.9401L3.00261 15.9432C3.00702 15.9471 3.01522 15.9541 3.02722 15.9641C3.05123 15.9842 3.09042 16.0161 3.14479 16.0581C3.25354 16.1422 3.42289 16.2663 3.6528 16.4154C4.11265 16.7136 4.81419 17.1114 5.75737 17.4887L8.56584 18.6121C10.5907 19.422 11.4396 19.75 12.5 19.75C13.5604 19.75 14.4093 19.422 16.4342 18.6121L19.2426 17.4887C20.1858 17.1114 20.8874 16.7136 21.3472 16.4154C21.5771 16.2663 21.7465 16.1422 21.8552 16.0581C21.9096 16.0161 21.9488 15.9842 21.9728 15.9641C21.9848 15.9541 21.993 15.9471 21.9974 15.9432L21.9995 15.9415C22 15.941 22.0006 15.9405 22.0011 15.94C22.3095 15.6652 22.7823 15.6915 23.0583 15.9992C23.3349 16.3075 23.3092 16.7817 23.0008 17.0583L22.5166 16.5185C23.0008 17.0583 23.001 17.0581 23.0008 17.0583L22.9994 17.0595L22.9977 17.0611L22.993 17.0652L22.9793 17.0772C22.9682 17.0868 22.9532 17.0997 22.9341 17.1155C22.8961 17.1473 22.8422 17.1911 22.7724 17.245C22.6329 17.3528 22.4299 17.501 22.1634 17.6739C21.6303 18.0196 20.8424 18.4644 19.7997 18.8814L16.9912 20.0048C16.9524 20.0204 16.9138 20.0358 16.8756 20.0511C14.9988 20.802 13.8792 21.25 12.5 21.25C11.1208 21.25 10.0012 20.802 8.12443 20.0511C8.08619 20.0358 8.04763 20.0204 8.00875 20.0048L5.20029 18.8814C4.15759 18.4644 3.36971 18.0196 2.83662 17.6739C2.57005 17.501 2.36705 17.3528 2.22757 17.245C2.15782 17.1911 2.10392 17.1473 2.06587 17.1155C2.04684 17.0997 2.03177 17.0868 2.02066 17.0772L2.00696 17.0652L2.00233 17.0611L2.00057 17.0595L1.9995 17.0586C1.99934 17.0584 1.99919 17.0583 2.5 16.5L1.9995 17.0586C1.69116 16.782 1.66512 16.3075 1.94171 15.9992" fill="#303030"/>
</svg>
