<svg width="25" height="25" viewBox="0 0 25 25" fill="none" xmlns="http://www.w3.org/2000/svg">
<path d="M15 20H10M15 20C15 19.2865 15 18.9297 15.0381 18.693C15.1609 17.9296 15.1824 17.8815 15.6692 17.2807C15.8201 17.0945 16.3805 16.5927 17.5012 15.5892C19.0349 14.2159 20 12.2206 20 10C20 5.85786 16.6421 2.5 12.5 2.5C8.35786 2.5 5 5.85786 5 10C5 12.2206 5.9651 14.2159 7.49876 15.5892C8.61945 16.5927 9.17987 17.0945 9.33082 17.2807C9.81762 17.8815 9.8391 17.9296 9.96192 18.693C10 18.9297 10 19.2865 10 20M15 20C15 20.9346 15 21.4019 14.799 21.75C14.6674 21.978 14.478 22.1674 14.25 22.299C13.9019 22.5 13.4346 22.5 12.5 22.5C11.5654 22.5 11.0981 22.5 10.75 22.299C10.522 22.1674 10.3326 21.978 10.201 21.75C10 21.4019 10 20.9346 10 20" stroke="#737373" stroke-width="1.5"/>
<path d="M13.2852 9L11.1424 12H14.1424L11.9995 15" stroke="#737373" stroke-width="1.5" stroke-linecap="round" stroke-linejoin="round"/>
</svg>
