<svg width="25" height="25" viewBox="0 0 25 25" fill="none" xmlns="http://www.w3.org/2000/svg">
<path d="M19.1597 8.7861L19.528 8.41787C19.8704 8.07542 20.0416 7.9042 20.1445 7.72608C20.4236 7.24271 20.4236 6.64718 20.1445 6.16381C20.0416 5.98569 19.8704 5.81446 19.528 5.47202C19.1855 5.12957 19.0143 4.95835 18.8362 4.85551C18.3528 4.57644 17.7573 4.57644 17.2739 4.85551C17.0958 4.95835 16.9246 5.12957 16.5821 5.47202L16.2139 5.84025M11.7951 16.1507L6.27166 21.6742C5.92921 22.0166 5.75799 22.1879 5.57987 22.2907C5.0965 22.5698 4.50097 22.5698 4.0176 22.2907C3.83948 22.1879 3.66825 22.0166 3.32581 21.6742C2.98337 21.3317 2.81214 21.1605 2.7093 20.9824C2.43023 20.499 2.43023 19.9035 2.7093 19.4201C2.81214 19.242 2.98337 19.0708 3.32581 18.7283L8.84928 13.2049M8.11281 12.4684L12.5316 16.8872C14.2674 18.623 15.1354 19.491 16.2139 19.491C17.2924 19.491 18.1604 18.623 19.8962 16.8872C21.6321 15.1513 22.5 14.2834 22.5 13.2049C22.5 12.1263 21.6321 11.2584 19.8962 9.52256L15.4774 5.10379C13.7416 3.36793 12.8737 2.5 11.7951 2.5C10.7166 2.5 9.84867 3.36793 8.11281 5.10379C6.37696 6.83965 5.50903 7.70757 5.50903 8.7861C5.50903 9.86462 6.37696 10.7326 8.11281 12.4684Z" stroke="#737373" stroke-width="1.5"/>
</svg>
