<svg width="25" height="25" viewBox="0 0 25 25" fill="none" xmlns="http://www.w3.org/2000/svg">
<path d="M7.38633 18.5H17.0332C17.6502 18.5 17.9587 18.5 18.2354 18.4611C19.3608 18.3028 20.3348 17.6756 20.8588 16.7717C20.9876 16.5494 21.0852 16.2879 21.2803 15.7649L22.3997 12.7643C22.8153 11.6504 21.8873 10.5 20.5731 10.5C19.7628 10.5 19.0392 10.9533 18.763 11.6339L17.7623 14.1C17.5683 14.578 17.4713 14.817 17.287 14.9835C17.1864 15.0744 17.0683 15.1484 16.9383 15.2019C16.7004 15.3 16.4158 15.3 15.8467 15.3H8.86757C8.57437 15.3 8.42777 15.3 8.29716 15.2735C7.99217 15.2116 7.72656 15.0452 7.55744 14.8101C7.48502 14.7094 7.43505 14.5863 7.33511 14.34L6.23699 11.6339C5.96079 10.9533 5.2372 10.5 4.42689 10.5C3.11268 10.5 2.18469 11.6504 2.60028 12.7643L3.90329 16.257C3.92288 16.3095 3.93267 16.3357 3.94197 16.3594C4.43869 17.6243 5.76517 18.4786 7.26531 18.4996C7.2934 18.5 7.32438 18.5 7.38633 18.5Z" stroke="#737373" stroke-width="1.5"/>
<path d="M6.5 12.5V9.07143C6.5 6.91644 6.5 5.83894 7.20294 5.16947C7.90589 4.5 9.03726 4.5 11.3 4.5H13.7C15.9627 4.5 17.0941 4.5 17.7971 5.16947C18.5 5.83894 18.5 6.91644 18.5 9.07143V12.5" stroke="#737373" stroke-width="1.5"/>
<path d="M18.5 20.5V18.5M6.5 20.5V19.1667" stroke="#737373" stroke-width="1.5" stroke-linecap="round"/>
</svg>
