<svg width="25" height="24" viewBox="0 0 25 24" fill="none" xmlns="http://www.w3.org/2000/svg">
<path fill-rule="evenodd" clip-rule="evenodd" d="M22.1816 12C22.1816 17.5228 17.7045 22 12.1816 22C10.582 22 9.07001 21.6244 7.72917 20.9565C7.37285 20.7791 6.96557 20.72 6.58103 20.8229L4.35499 21.4185C3.38865 21.677 2.50459 20.793 2.76315 19.8267L3.35876 17.6006C3.46165 17.2161 3.40258 16.8088 3.2251 16.4525C2.55726 15.1116 2.18164 13.5997 2.18164 12C2.18164 6.47715 6.65879 2 12.1816 2C17.7045 2 22.1816 6.47715 22.1816 12ZM6.68164 12.0004C6.68164 12.6079 7.17413 13.1004 7.78164 13.1004C8.38915 13.1004 8.88164 12.6079 8.88164 12.0004C8.88164 11.3929 8.38915 10.9004 7.78164 10.9004C7.17413 10.9004 6.68164 11.3929 6.68164 12.0004ZM11.0816 12.0004C11.0816 12.6079 11.5741 13.1004 12.1816 13.1004C12.7892 13.1004 13.2816 12.6079 13.2816 12.0004C13.2816 11.3929 12.7892 10.9004 12.1816 10.9004C11.5741 10.9004 11.0816 11.3929 11.0816 12.0004ZM16.5816 13.1004C15.9741 13.1004 15.4816 12.6079 15.4816 12.0004C15.4816 11.3929 15.9741 10.9004 16.5816 10.9004C17.1892 10.9004 17.6816 11.3929 17.6816 12.0004C17.6816 12.6079 17.1892 13.1004 16.5816 13.1004Z" fill="#007AFF"/>
</svg>
