<svg width="25" height="24" viewBox="0 0 25 24" fill="none" xmlns="http://www.w3.org/2000/svg">
<path d="M8.18213 11.5078C8.45396 11.5078 8.67432 11.7282 8.67432 12C8.67432 12.2718 8.45396 12.4922 8.18213 12.4922C7.9103 12.4922 7.68994 12.2718 7.68994 12C7.68994 11.7282 7.9103 11.5078 8.18213 11.5078ZM12.1821 11.5078C12.454 11.5078 12.6743 11.7282 12.6743 12C12.6743 12.2718 12.454 12.4922 12.1821 12.4922C11.9103 12.4922 11.6899 12.2718 11.6899 12C11.6899 11.7282 11.9103 11.5078 12.1821 11.5078ZM16.1821 11.5078C16.454 11.5078 16.6743 11.7282 16.6743 12C16.6743 12.2718 16.454 12.4922 16.1821 12.4922C15.9103 12.4922 15.6899 12.2718 15.6899 12C15.6899 11.7282 15.9103 11.5078 16.1821 11.5078Z" fill="#303030" stroke="#333333" stroke-width="1.01562"/>
<path d="M12.1814 22C17.7042 22 22.1814 17.5228 22.1814 12C22.1814 6.47715 17.7042 2 12.1814 2C6.65855 2 2.1814 6.47715 2.1814 12C2.1814 13.5997 2.55701 15.1116 3.22486 16.4525C3.40233 16.8088 3.46141 17.2161 3.35851 17.6006L2.76291 19.8267C2.50435 20.793 3.38841 21.677 4.35474 21.4185L6.58078 20.8229C6.96533 20.72 7.3726 20.7791 7.72892 20.9565C9.06976 21.6244 10.5817 22 12.1814 22Z" stroke="#333333" stroke-width="1.52344"/>
</svg>
