<svg width="208" height="207" viewBox="0 0 208 207" fill="none" xmlns="http://www.w3.org/2000/svg">
<circle opacity="0.08" cx="104" cy="103.092" r="103.092" transform="rotate(-180 104 103.092)" fill="#8A6CFF"/>
<circle opacity="0.08" cx="104" cy="103.092" r="80.4555" transform="rotate(-180 104 103.092)" fill="#8A6CFF"/>
<circle opacity="0.08" cx="104" cy="103.092" r="54.4734" transform="rotate(-180 104 103.092)" fill="#8A6CFF"/>
<ellipse opacity="0.08" cx="104" cy="103.092" rx="29.1724" ry="29.1724" transform="rotate(-180 104 103.092)" fill="#8A6CFF"/>
<path d="M126.387 73.5032L118.479 69.3536C111.538 65.711 108.067 63.8896 104.334 63.8896C100.6 63.8896 97.1298 65.711 90.1886 69.3536L88.9166 70.0211L124.196 90.1806L140.077 82.2401C137.522 79.3467 133.399 77.1834 126.387 73.5032Z" fill="#8A6CFF"/>
<path d="M142.876 87.471L127.068 95.3752V107.381C127.068 109.018 125.74 110.346 124.102 110.346C122.465 110.346 121.137 109.018 121.137 107.381V98.3405L107.299 105.26V142.585C110.138 141.878 113.367 140.183 118.479 137.5L126.387 133.351C134.894 128.886 139.147 126.654 141.509 122.643C143.871 118.632 143.871 113.641 143.871 103.658V103.196C143.871 95.7126 143.871 91.0342 142.876 87.471Z" fill="#8A6CFF"/>
<path d="M101.369 142.585V105.26L65.7915 87.471C64.7966 91.0342 64.7966 95.7126 64.7966 103.196V103.658C64.7966 113.641 64.7966 118.632 67.1586 122.643C69.5205 126.654 73.774 128.886 82.2811 133.35L90.1886 137.5C95.3005 140.183 98.5301 141.878 101.369 142.585Z" fill="#8A6CFF"/>
<path d="M68.591 82.2401L104.334 100.112L117.821 93.3682L82.6855 73.291L82.2811 73.5032C75.2682 77.1834 71.1459 79.3467 68.591 82.2401Z" fill="#8A6CFF"/>
</svg>
