<svg width="20" height="19" viewBox="0 0 20 19" fill="none" xmlns="http://www.w3.org/2000/svg">
<rect width="19" height="19" transform="translate(0.0905762)" fill="white"/>
<path d="M2.21957 5.30778C2.0904 5.00638 1.74134 4.86676 1.43994 4.99593C1.13853 5.1251 0.998912 5.47416 1.12809 5.77556L1.67383 5.54167L2.21957 5.30778ZM12.4304 10.5519L12.2129 9.9994L12.2129 9.9994L12.4304 10.5519ZM7.24831 10.8757C7.42715 10.6009 7.34932 10.2331 7.07446 10.0542C6.7996 9.87538 6.43181 9.95321 6.25296 10.2281L6.75064 10.5519L7.24831 10.8757ZM5.13449 11.947C4.95565 12.2219 5.03348 12.5897 5.30834 12.7685C5.5832 12.9474 5.95099 12.8695 6.12983 12.5947L5.63216 12.2708L5.13449 11.947ZM18.0529 5.77556C18.1821 5.47416 18.0425 5.1251 17.7411 4.99593C17.4396 4.86676 17.0906 5.00638 16.9614 5.30778L17.5072 5.54167L18.0529 5.77556ZM15.1322 8.81034L14.7258 8.37741L14.7258 8.37741L15.1322 8.81034ZM15.8998 10.4177C16.1317 10.6496 16.5076 10.6496 16.7395 10.4177C16.9714 10.1858 16.9714 9.80986 16.7395 9.57799L16.3197 9.99784L15.8998 10.4177ZM8.99674 13.0625C8.99674 13.3904 9.26258 13.6563 9.59049 13.6563C9.91841 13.6563 10.1842 13.3904 10.1842 13.0625H9.59049H8.99674ZM13.0512 12.5947C13.23 12.8695 13.5978 12.9474 13.8727 12.7685C14.1475 12.5897 14.2253 12.2219 14.0465 11.947L13.5488 12.2708L13.0512 12.5947ZM4.46867 9.23018C4.70055 8.99831 4.70055 8.62236 4.46867 8.39049C4.2368 8.15862 3.86086 8.15862 3.62898 8.39049L4.04883 8.81033L4.46867 9.23018ZM2.44148 9.57799C2.20961 9.80986 2.20961 10.1858 2.44148 10.4177C2.67336 10.6496 3.0493 10.6496 3.28117 10.4177L2.86133 9.99783L2.44148 9.57799ZM9.59049 11.0833V10.4896C7.03825 10.4896 5.20571 9.21865 3.98913 7.90849C3.38102 7.2536 2.93515 6.59683 2.64172 6.10386C2.49533 5.85794 2.38781 5.65434 2.31777 5.51426C2.28277 5.44426 2.2572 5.39026 2.24088 5.35493C2.23272 5.33727 2.22688 5.32428 2.22333 5.31631C2.22156 5.31232 2.22036 5.30959 2.21974 5.30816C2.21942 5.30744 2.21925 5.30704 2.21923 5.30698C2.21921 5.30695 2.21923 5.307 2.21929 5.30713C2.21932 5.3072 2.21939 5.30736 2.2194 5.30739C2.21948 5.30758 2.21957 5.30778 1.67383 5.54167C1.12809 5.77556 1.12819 5.77581 1.12831 5.77608C1.12836 5.77619 1.12848 5.77648 1.12858 5.77672C1.12878 5.77719 1.12902 5.77774 1.1293 5.77838C1.12985 5.77966 1.13055 5.78128 1.1314 5.78322C1.1331 5.78711 1.1354 5.79233 1.13829 5.79883C1.14407 5.81183 1.15224 5.82996 1.16283 5.85289C1.184 5.89873 1.21487 5.96379 1.25564 6.04532C1.33713 6.2083 1.45844 6.43764 1.62131 6.71125C1.94636 7.25734 2.4406 7.986 3.11894 8.71652C4.47528 10.1772 6.60108 11.6771 9.59049 11.6771V11.0833ZM12.4304 10.5519L12.2129 9.9994C11.4447 10.3018 10.5735 10.4896 9.59049 10.4896V11.0833V11.6771C10.7291 11.6771 11.7475 11.4588 12.6478 11.1044L12.4304 10.5519ZM6.75064 10.5519L6.25296 10.2281L5.13449 11.947L5.63216 12.2708L6.12983 12.5947L7.24831 10.8757L6.75064 10.5519ZM17.5072 5.54167C16.9614 5.30778 16.9615 5.30766 16.9615 5.30755C16.9615 5.30752 16.9616 5.30741 16.9616 5.30736C16.9617 5.30724 16.9617 5.30715 16.9617 5.30709C16.9618 5.30696 16.9618 5.30694 16.9617 5.30702C16.9617 5.30718 16.9614 5.30775 16.961 5.30873C16.9601 5.31069 16.9586 5.31426 16.9563 5.3194C16.9517 5.32968 16.9442 5.3462 16.9338 5.36849C16.913 5.41308 16.8806 5.48068 16.8363 5.56753C16.7477 5.74138 16.6118 5.99158 16.4269 6.28837C16.0559 6.88367 15.4934 7.65698 14.7258 8.37741L15.1322 8.81034L15.5385 9.24326C16.4007 8.43401 17.0256 7.57299 17.4347 6.91637C17.6398 6.58721 17.7922 6.30706 17.8942 6.10704C17.9452 6.00697 17.9838 5.92676 18.0101 5.87027C18.0233 5.84202 18.0334 5.81969 18.0405 5.80375C18.0441 5.79577 18.0469 5.7894 18.0489 5.78468C18.05 5.78233 18.0508 5.78038 18.0515 5.77886C18.0518 5.7781 18.0521 5.77744 18.0523 5.77689C18.0525 5.77662 18.0526 5.77637 18.0527 5.77615C18.0527 5.77604 18.0528 5.77589 18.0528 5.77583C18.0528 5.77569 18.0529 5.77556 17.5072 5.54167ZM15.1322 8.81034L14.7258 8.37741C14.0458 9.0157 13.2115 9.60635 12.2129 9.9994L12.4304 10.5519L12.6478 11.1044C13.8144 10.6452 14.7732 9.96156 15.5385 9.24326L15.1322 8.81034ZM15.1322 8.81034L14.7123 9.23018L15.8998 10.4177L16.3197 9.99784L16.7395 9.57799L15.552 8.39049L15.1322 8.81034ZM9.59049 11.0833H8.99674V13.0625H9.59049H10.1842V11.0833H9.59049ZM12.4304 10.5519L11.9327 10.8757L13.0512 12.5947L13.5488 12.2708L14.0465 11.947L12.928 10.2281L12.4304 10.5519ZM4.04883 8.81033L3.62898 8.39049L2.44148 9.57799L2.86133 9.99783L3.28117 10.4177L4.46867 9.23018L4.04883 8.81033Z" fill="#898989"/>
</svg>
