<svg width="25" height="25" viewBox="0 0 25 25" fill="none" xmlns="http://www.w3.org/2000/svg">
<path d="M12.5006 16.5C6.7407 16.5 5.72032 10.7595 5.53956 6.20647C5.48928 4.93998 5.46414 4.30673 5.93985 3.72083C6.41557 3.13494 6.98494 3.03887 8.12367 2.84674C9.24773 2.65709 10.7171 2.5 12.5006 2.5C14.2842 2.5 15.7536 2.65709 16.8776 2.84674C18.0163 3.03887 18.5857 3.13494 19.0614 3.72083C19.5371 4.30673 19.512 4.93998 19.4617 6.20647C19.281 10.7595 18.2606 16.5 12.5006 16.5Z" stroke="#737373" stroke-width="1.5"/>
<path d="M11.5 8.5L13 7V11" stroke="#737373" stroke-width="1.5" stroke-linecap="round" stroke-linejoin="round"/>
<path d="M19.5 5.5L20.4486 5.81621C21.4387 6.14623 21.9337 6.31124 22.2168 6.70408C22.5 7.09692 22.5 7.61873 22.4999 8.66234L22.4999 8.73487C22.4999 9.59561 22.4999 10.026 22.2927 10.3781C22.0855 10.7302 21.7093 10.9392 20.9569 11.3572L18 13" stroke="#737373" stroke-width="1.5"/>
<path d="M5.49994 5.5L4.55132 5.81621C3.56126 6.14623 3.06623 6.31124 2.7831 6.70408C2.49996 7.09692 2.49997 7.61873 2.5 8.66234L2.5 8.73487C2.50003 9.59561 2.50004 10.026 2.70723 10.3781C2.91441 10.7302 3.29063 10.9392 4.04305 11.3572L6.99994 13" stroke="#737373" stroke-width="1.5"/>
<path d="M12.5 16.5V19.5" stroke="#737373" stroke-width="1.5" stroke-linecap="round"/>
<path d="M16 22.5H9L9.33922 20.8039C9.43271 20.3365 9.84312 20 10.3198 20H14.6802C15.1569 20 15.5673 20.3365 15.6608 20.8039L16 22.5Z" stroke="#737373" stroke-width="1.5" stroke-linecap="round" stroke-linejoin="round"/>
<path d="M18.5 22.5H6.5" stroke="#737373" stroke-width="1.5" stroke-linecap="round"/>
</svg>
