<svg width="25" height="25" viewBox="0 0 25 25" fill="none" xmlns="http://www.w3.org/2000/svg">
<path d="M8.53339 4.15784C8.87932 3.28072 10.1207 3.28072 10.4666 4.15785L11.5386 6.87599C11.6442 7.14378 11.8562 7.35576 12.124 7.46137L14.8422 8.53339C15.7193 8.87932 15.7193 10.1207 14.8422 10.4666L12.124 11.5386C11.8562 11.6442 11.6442 11.8562 11.5386 12.124L10.4666 14.8422C10.1207 15.7193 8.87932 15.7193 8.53339 14.8422L7.46137 12.124C7.35575 11.8562 7.14378 11.6442 6.87599 11.5386L4.15784 10.4666C3.28072 10.1207 3.28072 8.87932 4.15785 8.53339L6.87599 7.46137C7.14378 7.35575 7.35576 7.14378 7.46137 6.87599L8.53339 4.15784Z" stroke="#737373" stroke-width="1.5"/>
<path d="M16.9885 13.8481C17.1715 13.384 17.8285 13.384 18.0115 13.8481L18.8121 15.8781C18.868 16.0198 18.9802 16.132 19.1219 16.1879L21.1519 16.9885C21.616 17.1715 21.616 17.8285 21.1519 18.0115L19.1219 18.8121C18.9802 18.868 18.868 18.9802 18.8121 19.1219L18.0115 21.1519C17.8285 21.616 17.1715 21.616 16.9885 21.1519L16.1879 19.1219C16.132 18.9802 16.0198 18.868 15.8781 18.8121L13.8481 18.0115C13.384 17.8285 13.384 17.1715 13.8481 16.9885L15.8781 16.1879C16.0198 16.132 16.132 16.0198 16.1879 15.8781L16.9885 13.8481Z" stroke="#737373" stroke-width="1.5"/>
</svg>
