<svg width="25" height="25" viewBox="0 0 25 25" fill="none" xmlns="http://www.w3.org/2000/svg">
<path d="M14.505 4.5H10.495C6.71439 4.5 4.82407 4.5 3.64958 5.67157C2.84091 6.47823 2.58903 7.62339 2.51058 9.48947C2.49502 9.85954 2.48724 10.0446 2.55634 10.168C2.62545 10.2915 2.90133 10.4455 3.45308 10.7537C4.06586 11.0959 4.48007 11.7497 4.48007 12.5C4.48007 13.2503 4.06586 13.9041 3.45308 14.2463C2.90133 14.5545 2.62545 14.7085 2.55634 14.832C2.48724 14.9554 2.49502 15.1405 2.51058 15.5105C2.58903 17.3766 2.84091 18.5218 3.64958 19.3284C4.82407 20.5 6.71439 20.5 10.495 20.5H14.505C18.2856 20.5 20.1759 20.5 21.3504 19.3284C22.1591 18.5218 22.411 17.3766 22.4894 15.5105C22.505 15.1405 22.5128 14.9554 22.4437 14.832C22.3746 14.7085 22.0987 14.5545 21.5469 14.2463C20.9341 13.9041 20.5199 13.2503 20.5199 12.5C20.5199 11.7497 20.9341 11.0959 21.5469 10.7537C22.0987 10.4455 22.3746 10.2915 22.4437 10.168C22.5128 10.0446 22.505 9.85954 22.4894 9.48947C22.411 7.62339 22.1591 6.47823 21.3504 5.67157C20.1759 4.5 18.2856 4.5 14.505 4.5Z" stroke="#737373" stroke-width="1.5"/>
<path d="M9.5 15.5L15.5 9.5" stroke="#737373" stroke-width="1.5" stroke-linecap="round"/>
<path d="M16 15C16 15.5523 15.5523 16 15 16C14.4477 16 14 15.5523 14 15C14 14.4477 14.4477 14 15 14C15.5523 14 16 14.4477 16 15Z" fill="#737373"/>
<path d="M11 10C11 10.5523 10.5523 11 10 11C9.44772 11 9 10.5523 9 10C9 9.44772 9.44772 9 10 9C10.5523 9 11 9.44772 11 10Z" fill="#737373"/>
</svg>
