<svg width="26" height="27" viewBox="0 0 26 27" fill="none" xmlns="http://www.w3.org/2000/svg">
<path d="M13.2549 11.1808V16.1206H20.1195C19.8181 17.7092 18.9135 19.0543 17.5568 19.9587L21.6965 23.1708C24.1084 20.9445 25.4998 17.6745 25.4998 13.7899C25.4998 12.8855 25.4187 12.0157 25.2679 11.1809L13.2549 11.1808Z" fill="#4285F4"/>
<path d="M6.10663 15.9277L5.17298 16.6424L1.86816 19.2166C3.96697 23.3794 8.26865 26.2552 13.2547 26.2552C16.6986 26.2552 19.5859 25.1188 21.6963 23.1708L17.5567 19.9588C16.4203 20.7241 14.9708 21.188 13.2547 21.188C9.9384 21.188 7.12074 18.95 6.11184 15.9351L6.10663 15.9277Z" fill="#34A853"/>
<path d="M1.86819 7.78333C0.998562 9.49941 0.5 11.4359 0.5 13.4999C0.5 15.5639 0.998562 17.5004 1.86819 19.2165C1.86819 19.228 6.11228 15.9233 6.11228 15.9233C5.85717 15.158 5.70639 14.3464 5.70639 13.4998C5.70639 12.6532 5.85717 11.8415 6.11228 11.0762L1.86819 7.78333Z" fill="#FBBC05"/>
<path d="M13.255 5.82365C15.1335 5.82365 16.8033 6.47299 18.1368 7.72534L21.7894 4.07275C19.5746 2.00876 16.699 0.744751 13.255 0.744751C8.26891 0.744751 3.96697 3.60888 1.86816 7.78333L6.11212 11.0765C7.12088 8.0616 9.93867 5.82365 13.255 5.82365Z" fill="#EA4335"/>
</svg>
