<svg width="25" height="24" viewBox="0 0 25 24" fill="none" xmlns="http://www.w3.org/2000/svg">
<path d="M2.18164 12.2039C2.18164 9.91549 2.18164 8.77128 2.70084 7.82274C3.22004 6.87421 4.16859 6.28551 6.06567 5.10813L8.06567 3.86687C10.071 2.62229 11.0737 2 12.1816 2C13.2896 2 14.2923 2.62229 16.2976 3.86687L18.2976 5.10812C20.1947 6.28551 21.1432 6.87421 21.6624 7.82274C22.1816 8.77128 22.1816 9.91549 22.1816 12.2039V13.725C22.1816 17.6258 22.1816 19.5763 21.0101 20.7881C19.8385 22 17.9529 22 14.1816 22H10.1816C6.4104 22 4.52479 22 3.35321 20.7881C2.18164 19.5763 2.18164 17.6258 2.18164 13.725V12.2039Z" stroke="#303030" stroke-width="1.52344"/>
<path d="M12.1816 15L12.1816 18" stroke="#303030" stroke-width="1.52344" stroke-linecap="round"/>
</svg>
