<svg width="17" height="16" viewBox="0 0 17 16" fill="none" xmlns="http://www.w3.org/2000/svg">
<path d="M15.1559 6.66732C15.1312 5.79327 15.0481 5.23602 14.7681 4.76048C14.3698 4.08414 13.6526 3.70776 12.2181 2.955L10.8848 2.2553C9.7144 1.64109 9.12919 1.33398 8.49967 1.33398C7.87016 1.33398 7.28495 1.64109 6.11454 2.25529L4.7812 2.955C3.34676 3.70776 2.62954 4.08414 2.23127 4.76048C1.83301 5.43682 1.83301 6.27843 1.83301 7.96166V8.03964C1.83301 9.72287 1.83301 10.5645 2.23127 11.2408C2.62954 11.9172 3.34676 12.2935 4.7812 13.0463L6.11454 13.746C7.28495 14.3602 7.87016 14.6673 8.49967 14.6673C9.12919 14.6673 9.7144 14.3602 10.8848 13.746L12.2181 13.0463C13.6526 12.2935 14.3698 11.9172 14.7681 11.2408C15.0481 10.7653 15.1312 10.208 15.1559 9.33398" stroke="#8A6CFF" stroke-linecap="round"/>
<path d="M14.5 5L11.8333 6.33333M8.5 8L2.5 5M8.5 8V14.3333M8.5 8C8.5 8 10.3284 7.08579 11.5 6.5C11.6302 6.43491 11.8333 6.33333 11.8333 6.33333M11.8333 6.33333V8.66667M11.8333 6.33333L5.5 3" stroke="#8A6CFF" stroke-linecap="round"/>
</svg>
