<svg width="126" height="25" viewBox="0 0 126 25" fill="none" xmlns="http://www.w3.org/2000/svg">
<rect x="0.735107" y="0.614563" width="23.973" height="23.973" rx="11.9865" fill="#007AFF"/>
<g clip-path="url(#clip0_119_398)">
<path d="M15.7951 10.6801L9.64819 10.6801M9.64819 10.6801L11.7612 8.75922M9.64819 10.6801L11.7612 12.601" stroke="white" stroke-width="1.38306" stroke-linecap="round" stroke-linejoin="round"/>
<path d="M9.64799 14.522L15.7949 14.522M15.7949 14.522L13.6819 12.6011M15.7949 14.522L13.6819 16.4429" stroke="white" stroke-width="1.38306" stroke-linecap="round" stroke-linejoin="round"/>
<path d="M8.87992 5.94536C10.0101 5.29159 11.3222 4.91742 12.7217 4.91742C16.9653 4.91742 20.4054 8.35751 20.4054 12.6011C20.4054 16.8446 16.9653 20.2847 12.7217 20.2847C8.47818 20.2847 5.03809 16.8446 5.03809 12.6011C5.03809 11.2015 5.41226 9.88941 6.06602 8.75925" stroke="white" stroke-width="1.38306" stroke-linecap="round"/>
</g>
<path d="M35.0348 18.1936C31.7329 18.1936 29.5866 16.3466 29.3184 13.5091H31.4749C31.7535 15.3664 33.0536 16.4292 35.0451 16.4292C36.7167 16.4292 37.8723 15.5315 37.8723 14.1798C37.8723 13.1479 37.4802 12.5288 36.5413 12.0748C36.0769 11.8478 35.4269 11.6311 34.6014 11.4351C31.3098 10.6509 30.0303 9.41265 30.0303 7.12196C30.0303 5.55356 30.8558 4.29471 32.3107 3.62402C33.033 3.29383 33.8688 3.12873 34.8284 3.12873C37.6763 3.12873 39.4304 4.58363 39.7193 7.19419H37.6041C37.408 5.67738 36.4587 4.87255 34.8387 4.87255C33.229 4.87255 32.2385 5.6877 32.2385 6.9775C32.2385 8.23635 32.8989 8.93801 34.9419 9.41265C37.3667 9.98017 38.8216 10.7644 39.5439 11.92C39.9051 12.5082 40.0805 13.2098 40.0805 14.0353C40.0805 15.6863 39.1931 16.9864 37.666 17.6777C36.9024 18.0182 36.0253 18.1936 35.0348 18.1936Z" fill="black"/>
<path d="M49.0893 7.35929L51.3284 15.4077L53.7635 7.35929H55.8066L52.4015 17.8428H50.183L47.9749 9.79444L45.7564 17.8428H43.5586L40.1535 7.35929H42.3204L44.7555 15.4283L46.9946 7.35929H49.0893Z" fill="black"/>
<path d="M60.719 7.0291C63.5978 7.0291 65.1146 8.5975 65.1146 11.4557V17.8428H63.6391C63.6081 17.234 63.5565 16.8316 63.4843 16.6356C63.4327 16.4705 63.3605 16.3982 63.2367 16.3982C63.0819 16.3982 63.0097 16.4705 62.8343 16.7181C62.1429 17.688 61.0801 18.173 59.6355 18.173C57.3242 18.173 55.7352 16.9245 55.7352 14.7886C55.7352 12.8384 57.1282 11.7859 59.9038 11.6208C61.5032 11.5279 62.5763 11.3938 63.1335 11.2287C63.1232 9.57775 62.2461 8.69036 60.6777 8.69036C59.3157 8.69036 58.4076 9.36106 58.1084 10.4755H56.055C56.4884 8.40145 58.191 7.0291 60.719 7.0291ZM62.7001 15.0156C62.989 14.4068 63.1335 13.6535 63.1335 12.7558V12.6836C62.6279 12.8487 61.7405 12.9519 60.0895 13.1066C58.4386 13.2408 57.7576 13.7361 57.7576 14.7576C57.7576 15.9133 58.645 16.5633 60.038 16.5633C61.3174 16.5633 62.2048 16.0474 62.7001 15.0156Z" fill="black"/>
<path d="M69.0158 22.2797H66.9831V7.35929H68.4999C68.5102 7.7617 68.5515 8.15381 68.6031 8.51495C68.6444 8.83482 68.7063 8.92769 68.8714 8.92769C69.0055 8.92769 69.1087 8.85546 69.2841 8.63877C70.1715 7.56565 71.3994 7.0291 72.9678 7.0291C73.9583 7.0291 74.856 7.26642 75.6712 7.75139C76.4864 8.23635 77.1261 8.89673 77.5904 9.74284C78.0548 10.589 78.2818 11.5382 78.2818 12.601C78.2818 13.6638 78.0444 14.6131 77.5801 15.4593C77.1158 16.3054 76.4657 16.9657 75.6506 17.4507C74.8354 17.9357 73.9171 18.173 72.8955 18.173C71.451 18.173 70.254 17.6364 69.4286 16.7387C69.315 16.6252 69.2841 16.6046 69.2015 16.6046C69.0777 16.6046 69.0158 16.7078 69.0158 16.9141V22.2797ZM72.5654 16.4189C73.9583 16.4189 75.1037 15.7378 75.7228 14.5822C76.022 14.0044 76.1768 13.344 76.1768 12.601C76.1768 11.1152 75.5371 9.91826 74.433 9.2682C73.8861 8.94832 73.2567 8.78323 72.5654 8.78323C71.5335 8.78323 70.6668 9.14437 70.0167 9.79444C69.346 10.4651 68.9539 11.4557 68.9539 12.601C68.9539 13.7464 69.346 14.737 70.0167 15.4077C70.6668 16.0577 71.5335 16.4189 72.5654 16.4189Z" fill="black"/>
<path d="M84.3808 18.1936C81.0789 18.1936 78.9326 16.3466 78.6644 13.5091H80.8209C81.0995 15.3664 82.3996 16.4292 84.3911 16.4292C86.0627 16.4292 87.2183 15.5315 87.2183 14.1798C87.2183 13.1479 86.8262 12.5288 85.8873 12.0748C85.4229 11.8478 84.7729 11.6311 83.9474 11.4351C80.6558 10.6509 79.3763 9.41265 79.3763 7.12196C79.3763 5.55356 80.2018 4.29471 81.6567 3.62402C82.379 3.29383 83.2148 3.12873 84.1744 3.12873C87.0223 3.12873 88.7764 4.58363 89.0653 7.19419H86.9501C86.754 5.67738 85.8047 4.87255 84.1847 4.87255C82.5751 4.87255 81.5845 5.6877 81.5845 6.9775C81.5845 8.23635 82.2449 8.93801 84.2879 9.41265C86.7127 9.98017 88.1676 10.7644 88.8899 11.92C89.2511 12.5082 89.4265 13.2098 89.4265 14.0353C89.4265 15.6863 88.5391 16.9864 87.012 17.6777C86.2484 18.0182 85.3713 18.1936 84.3808 18.1936Z" fill="black"/>
<path d="M92.7705 17.8428H90.7378V2.92236H92.7705V8.52527C92.7705 8.73164 92.8324 8.83482 92.9459 8.83482C93.0594 8.83482 93.111 8.80387 93.2864 8.56654C94.0809 7.5347 95.1644 7.01878 96.5574 7.01878C99.0131 7.01878 100.468 8.61813 100.468 11.4247V17.8428H98.4353V11.6724C98.4353 9.84603 97.5789 8.81418 96.0621 8.81418C95.0199 8.81418 94.2047 9.2166 93.6269 10.0318C93.0078 10.8882 92.7705 12.0232 92.7705 13.4368V17.8428Z" fill="black"/>
<path d="M107.331 18.173C106.237 18.173 105.257 17.9357 104.38 17.4507C103.502 16.9761 102.821 16.3157 102.336 15.4593C101.841 14.6131 101.594 13.6638 101.594 12.601C101.594 11.5382 101.841 10.589 102.336 9.73252C102.821 8.88641 103.502 8.22603 104.38 7.74107C105.257 7.26642 106.237 7.0291 107.331 7.0291C108.424 7.0291 109.405 7.26642 110.282 7.74107C111.159 8.22603 111.84 8.88641 112.335 9.73252C112.83 10.5786 113.078 11.5382 113.078 12.601C113.078 14.737 112.025 16.5014 110.282 17.4507C109.405 17.9357 108.424 18.173 107.331 18.173ZM107.331 16.4189C108.765 16.4189 109.91 15.7378 110.529 14.5822C110.829 14.0044 110.983 13.344 110.983 12.601C110.983 11.1152 110.344 9.91826 109.24 9.2682C108.682 8.94832 108.043 8.78323 107.331 8.78323C105.174 8.78323 103.688 10.3619 103.688 12.601C103.688 14.8401 105.174 16.4189 107.331 16.4189Z" fill="black"/>
<path d="M116.381 22.2797H114.348V7.35929H115.865C115.875 7.7617 115.916 8.15381 115.968 8.51495C116.009 8.83482 116.071 8.92769 116.236 8.92769C116.37 8.92769 116.474 8.85546 116.649 8.63877C117.536 7.56565 118.764 7.0291 120.333 7.0291C121.323 7.0291 122.221 7.26642 123.036 7.75139C123.851 8.23635 124.491 8.89673 124.955 9.74284C125.42 10.589 125.647 11.5382 125.647 12.601C125.647 13.6638 125.409 14.6131 124.945 15.4593C124.481 16.3054 123.831 16.9657 123.015 17.4507C122.2 17.9357 121.282 18.173 120.26 18.173C118.816 18.173 117.619 17.6364 116.793 16.7387C116.68 16.6252 116.649 16.6046 116.566 16.6046C116.443 16.6046 116.381 16.7078 116.381 16.9141V22.2797ZM119.93 16.4189C121.323 16.4189 122.469 15.7378 123.088 14.5822C123.387 14.0044 123.542 13.344 123.542 12.601C123.542 11.1152 122.902 9.91826 121.798 9.2682C121.251 8.94832 120.622 8.78323 119.93 8.78323C118.898 8.78323 118.032 9.14437 117.382 9.79444C116.711 10.4651 116.319 11.4557 116.319 12.601C116.319 13.7464 116.711 14.737 117.382 15.4077C118.032 16.0577 118.898 16.4189 119.93 16.4189Z" fill="black"/>
<defs>
<clipPath id="clip0_119_398">
<rect width="18.4408" height="18.4408" fill="white" transform="translate(3.50122 3.38068)"/>
</clipPath>
</defs>
</svg>
