<svg width="103" height="20" viewBox="0 0 103 20" fill="none" xmlns="http://www.w3.org/2000/svg">
<rect width="19.7678" height="19.7678" rx="9.88388" fill="#007AFF"/>
<g clip-path="url(#clip0_1006_4110)">
<path d="M12.4183 8.2999L7.34961 8.2999M7.34961 8.2999L9.09196 6.71594M7.34961 8.2999L9.09196 9.88385" stroke="white" stroke-width="1.14045" stroke-linecap="round" stroke-linejoin="round"/>
<path d="M7.35127 11.4678L12.4199 11.4678M12.4199 11.4678L10.6776 9.88385M12.4199 11.4678L10.6776 13.0518" stroke="white" stroke-width="1.14045" stroke-linecap="round" stroke-linejoin="round"/>
<path d="M6.71674 4.39565C7.64865 3.85657 8.73062 3.54803 9.88465 3.54803C13.3838 3.54803 16.2205 6.38468 16.2205 9.88386C16.2205 13.383 13.3838 16.2197 9.88465 16.2197C6.38547 16.2197 3.54883 13.383 3.54883 9.88386C3.54883 8.72983 3.85736 7.64786 4.39645 6.71595" stroke="white" stroke-width="1.14045" stroke-linecap="round"/>
</g>
<path d="M28.282 14.4955C25.5593 14.4955 23.7896 12.9725 23.5684 10.6326H25.3466C25.5763 12.1642 26.6484 13.0405 28.2905 13.0405C29.6689 13.0405 30.6218 12.3003 30.6218 11.1857C30.6218 10.3348 30.2985 9.82434 29.5242 9.44997C29.1414 9.26279 28.6053 9.08411 27.9247 8.92245C25.2105 8.27581 24.1554 7.2548 24.1554 5.36594C24.1554 4.07266 24.8361 3.03463 26.0358 2.48159C26.6314 2.20932 27.3206 2.07318 28.1118 2.07318C30.4602 2.07318 31.9066 3.27287 32.1448 5.4255H30.4006C30.239 4.17476 29.4562 3.5111 28.1204 3.5111C26.793 3.5111 25.9762 4.18327 25.9762 5.24682C25.9762 6.28484 26.5208 6.86342 28.2054 7.2548C30.2049 7.72277 31.4046 8.3694 32.0002 9.32235C32.298 9.80733 32.4426 10.3859 32.4426 11.0666C32.4426 12.4279 31.7109 13.5 30.4517 14.07C29.822 14.3508 29.0988 14.4955 28.282 14.4955Z" fill="black"/>
<path d="M39.8711 5.56163L41.7175 12.1982L43.7255 5.56163H45.4101L42.6023 14.2062H40.773L38.9522 7.56961L37.1229 14.2062H35.3106L32.5029 5.56163H34.2896L36.2976 12.2152L38.1439 5.56163H39.8711Z" fill="black"/>
<path d="M49.4608 5.28936C51.8346 5.28936 53.0854 6.58264 53.0854 8.93947V14.2062H51.8687C51.8432 13.7042 51.8006 13.3723 51.7411 13.2107C51.6985 13.0746 51.639 13.015 51.5369 13.015C51.4092 13.015 51.3497 13.0746 51.205 13.2788C50.635 14.0785 49.7586 14.4784 48.5674 14.4784C46.6615 14.4784 45.3512 13.4489 45.3512 11.6877C45.3512 10.0796 46.4999 9.21174 48.7886 9.0756C50.1074 8.99903 50.9923 8.88842 51.4518 8.75228C51.4433 7.39094 50.72 6.65921 49.4268 6.65921C48.3037 6.65921 47.5549 7.21226 47.3082 8.13117H45.615C45.9724 6.42098 47.3762 5.28936 49.4608 5.28936ZM51.0944 11.8749C51.3327 11.3729 51.4518 10.7518 51.4518 10.0115V9.95197C51.0349 10.0881 50.3031 10.1732 48.9418 10.3008C47.5804 10.4114 47.0189 10.8198 47.0189 11.6622C47.0189 12.6151 47.7506 13.1511 48.8992 13.1511C49.9543 13.1511 50.686 12.7257 51.0944 11.8749Z" fill="black"/>
<path d="M56.3022 17.8648H54.6261V5.56163H55.8768C55.8853 5.89346 55.9194 6.21678 55.9619 6.51457C55.9959 6.77833 56.047 6.85491 56.1831 6.85491C56.2937 6.85491 56.3788 6.79535 56.5235 6.61667C57.2552 5.7318 58.2677 5.28936 59.561 5.28936C60.3778 5.28936 61.118 5.48505 61.7902 5.88495C62.4623 6.28484 62.9898 6.82938 63.3727 7.52707C63.7556 8.22476 63.9428 9.00753 63.9428 9.8839C63.9428 10.7603 63.7471 11.543 63.3642 12.2407C62.9813 12.9384 62.4453 13.483 61.7732 13.8829C61.101 14.2827 60.3437 14.4784 59.5014 14.4784C58.3102 14.4784 57.3233 14.036 56.6426 13.2958C56.549 13.2022 56.5235 13.1852 56.4554 13.1852C56.3533 13.1852 56.3022 13.2702 56.3022 13.4404V17.8648ZM59.2291 13.032C60.3778 13.032 61.3222 12.4705 61.8327 11.5175C62.0795 11.041 62.2071 10.4965 62.2071 9.8839C62.2071 8.65869 61.6796 7.67172 60.7692 7.13569C60.3182 6.87192 59.7992 6.73579 59.2291 6.73579C58.3783 6.73579 57.6636 7.03358 57.1276 7.56961C56.5745 8.12266 56.2512 8.93947 56.2512 9.8839C56.2512 10.8283 56.5745 11.6451 57.1276 12.1982C57.6636 12.7342 58.3783 13.032 59.2291 13.032Z" fill="black"/>
<path d="M68.9719 14.4955C66.2493 14.4955 64.4795 12.9725 64.2583 10.6326H66.0365C66.2663 12.1642 67.3383 13.0405 68.9804 13.0405C70.3588 13.0405 71.3118 12.3003 71.3118 11.1857C71.3118 10.3348 70.9884 9.82434 70.2142 9.44997C69.8313 9.26279 69.2953 9.08411 68.6146 8.92245C65.9004 8.27581 64.8454 7.2548 64.8454 5.36594C64.8454 4.07266 65.526 3.03463 66.7257 2.48159C67.3213 2.20932 68.0105 2.07318 68.8018 2.07318C71.1501 2.07318 72.5965 3.27287 72.8348 5.4255H71.0905C70.9289 4.17476 70.1461 3.5111 68.8103 3.5111C67.483 3.5111 66.6662 4.18327 66.6662 5.24682C66.6662 6.28484 67.2107 6.86342 68.8954 7.2548C70.8948 7.72277 72.0945 8.3694 72.6901 9.32235C72.9879 9.80733 73.1326 10.3859 73.1326 11.0666C73.1326 12.4279 72.4008 13.5 71.1416 14.07C70.512 14.3508 69.7887 14.4955 68.9719 14.4955Z" fill="black"/>
<path d="M75.89 14.2062H74.2138V1.90302H75.89V6.52308C75.89 6.69325 75.941 6.77833 76.0346 6.77833C76.1282 6.77833 76.1707 6.75281 76.3154 6.55711C76.9705 5.70627 77.8639 5.28085 79.0126 5.28085C81.0376 5.28085 82.2372 6.59966 82.2372 8.91394V14.2062H80.5611V9.11814C80.5611 7.61216 79.8549 6.76132 78.6041 6.76132C77.7448 6.76132 77.0726 7.09314 76.5962 7.76531C76.0857 8.47151 75.89 9.40743 75.89 10.5731V14.2062Z" fill="black"/>
<path d="M87.896 14.4784C86.9941 14.4784 86.1858 14.2827 85.4626 13.8829C84.7394 13.4915 84.1778 12.9469 83.7779 12.2407C83.3695 11.543 83.1653 10.7603 83.1653 9.8839C83.1653 9.00753 83.3695 8.22476 83.7779 7.51856C84.1778 6.82087 84.7394 6.27634 85.4626 5.87644C86.1858 5.48505 86.9941 5.28936 87.896 5.28936C88.7979 5.28936 89.6062 5.48505 90.3294 5.87644C91.0526 6.27634 91.6142 6.82087 92.0226 7.51856C92.431 8.21625 92.6352 9.00753 92.6352 9.8839C92.6352 11.6451 91.7673 13.1001 90.3294 13.8829C89.6062 14.2827 88.7979 14.4784 87.896 14.4784ZM87.896 13.032C89.0787 13.032 90.0231 12.4705 90.5336 11.5175C90.7803 11.041 90.908 10.4965 90.908 9.8839C90.908 8.65869 90.3805 7.67172 89.4701 7.13569C89.0106 6.87192 88.4831 6.73579 87.896 6.73579C86.1177 6.73579 84.8925 8.03758 84.8925 9.8839C84.8925 11.7302 86.1177 13.032 87.896 13.032Z" fill="black"/>
<path d="M95.3586 17.8648H93.6824V5.56163H94.9331C94.9416 5.89346 94.9757 6.21678 95.0182 6.51457C95.0523 6.77833 95.1033 6.85491 95.2394 6.85491C95.3501 6.85491 95.4351 6.79535 95.5798 6.61667C96.3115 5.7318 97.324 5.28936 98.6173 5.28936C99.4341 5.28936 100.174 5.48505 100.846 5.88495C101.519 6.28484 102.046 6.82938 102.429 7.52707C102.812 8.22476 102.999 9.00753 102.999 9.8839C102.999 10.7603 102.803 11.543 102.421 12.2407C102.038 12.9384 101.502 13.483 100.829 13.8829C100.157 14.2827 99.4001 14.4784 98.5577 14.4784C97.3665 14.4784 96.3796 14.036 95.6989 13.2958C95.6053 13.2022 95.5798 13.1852 95.5117 13.1852C95.4096 13.1852 95.3586 13.2702 95.3586 13.4404V17.8648ZM98.2855 13.032C99.4341 13.032 100.379 12.4705 100.889 11.5175C101.136 11.041 101.263 10.4965 101.263 9.8839C101.263 8.65869 100.736 7.67172 99.8255 7.13569C99.3745 6.87192 98.8555 6.73579 98.2855 6.73579C97.4346 6.73579 96.7199 7.03358 96.1839 7.56961C95.6308 8.12266 95.3075 8.93947 95.3075 9.8839C95.3075 10.8283 95.6308 11.6451 96.1839 12.1982C96.7199 12.7342 97.4346 13.032 98.2855 13.032Z" fill="black"/>
<defs>
<clipPath id="clip0_1006_4110">
<rect width="15.206" height="15.206" fill="white" transform="translate(2.28125 2.28088)"/>
</clipPath>
</defs>
</svg>
