<svg width="20" height="20" viewBox="0 0 20 20" fill="none" xmlns="http://www.w3.org/2000/svg">
<g clip-path="url(#clip0_1618_6124)">
<path d="M6.14797 9.69201H5.39797V9.69201L6.14797 9.69201ZM6.14797 10.4636L5.58649 10.9608C5.72178 11.1136 5.91347 11.2047 6.11736 11.213C6.32125 11.2213 6.51973 11.1462 6.66702 11.005L6.14797 10.4636ZM8.01905 9.70869C8.31805 9.42202 8.32804 8.94725 8.04137 8.64826C7.7547 8.34927 7.27994 8.33928 6.98095 8.62595L8.01905 9.70869ZM5.56148 8.67008C5.28686 8.35999 4.81286 8.33122 4.50277 8.60584C4.19267 8.88045 4.16391 9.35445 4.43852 9.66455L5.56148 8.67008ZM12.3513 7.59329C12.6326 7.89735 13.1071 7.91582 13.4112 7.63454C13.7152 7.35326 13.7337 6.87874 13.4524 6.57468L12.3513 7.59329ZM10.0364 5.83398V5.08398C7.48024 5.08398 5.39797 7.14152 5.39797 9.69201H6.14797H6.89797C6.89797 7.98104 8.29754 6.58398 10.0364 6.58398V5.83398ZM6.14797 9.69201L5.39797 9.69201L5.39797 10.4636H6.14797H6.89797L6.89797 9.69201L6.14797 9.69201ZM6.14797 10.4636L6.66702 11.005L8.01905 9.70869L7.5 9.16732L6.98095 8.62595L5.62892 9.92224L6.14797 10.4636ZM6.14797 10.4636L6.70945 9.96638L5.56148 8.67008L5 9.16732L4.43852 9.66455L5.58649 10.9608L6.14797 10.4636ZM12.9019 7.08398L13.4524 6.57468C12.6049 5.65856 11.3871 5.08398 10.0364 5.08398V5.83398V6.58398C10.9538 6.58398 11.7772 6.9727 12.3513 7.59329L12.9019 7.08398Z" fill="#007AFF"/>
<path d="M13.8487 9.53711L14.4093 9.03898C14.2739 8.8865 14.0822 8.79577 13.8784 8.7877C13.6746 8.77962 13.4762 8.8549 13.3291 8.99618L13.8487 9.53711ZM11.9802 10.2918C11.6814 10.5787 11.6718 11.0534 11.9587 11.3522C12.2457 11.6509 12.7204 11.6605 13.0192 11.3736L11.9802 10.2918ZM14.439 11.3308C14.7141 11.6405 15.1881 11.6685 15.4978 11.3934C15.8075 11.1183 15.8355 10.6442 15.5604 10.3346L14.439 11.3308ZM7.62989 12.4186C7.34643 12.1165 6.87179 12.1015 6.56976 12.3849C6.26773 12.6684 6.25267 13.143 6.53613 13.445L7.62989 12.4186ZM9.94534 14.1667V14.9167C12.507 14.9167 14.5987 12.8619 14.5987 10.3087H13.8487H13.0987C13.0987 12.017 11.6951 13.4167 9.94534 13.4167V14.1667ZM13.8487 10.3087H14.5987V9.53711H13.8487H13.0987V10.3087H13.8487ZM13.8487 9.53711L13.3291 8.99618L11.9802 10.2918L12.4997 10.8327L13.0192 11.3736L14.3682 10.078L13.8487 9.53711ZM13.8487 9.53711L13.288 10.0352L14.439 11.3308L14.9997 10.8327L15.5604 10.3346L14.4093 9.03898L13.8487 9.53711ZM7.08301 12.9318L6.53613 13.445C7.38586 14.3505 8.60021 14.9167 9.94534 14.9167V14.1667V13.4167C9.02868 13.4167 8.20589 13.0323 7.62989 12.4186L7.08301 12.9318Z" fill="#007AFF"/>
<circle cx="10.0003" cy="9.99935" r="8.33333" stroke="#007AFF" stroke-width="1.5"/>
</g>
<defs>
<clipPath id="clip0_1618_6124">
<rect width="20" height="20" fill="white"/>
</clipPath>
</defs>
</svg>
