<svg width="20" height="20" viewBox="0 0 20 20" fill="none" xmlns="http://www.w3.org/2000/svg">
<g clip-path="url(#clip0_1618_2813)">
<path d="M12.9818 2.81766L14.6484 3.69228C16.4415 4.63323 17.338 5.10371 17.8358 5.94913C18.3337 6.79456 18.3337 7.84657 18.3337 9.95061V10.0481C18.3337 12.1521 18.3337 13.2041 17.8358 14.0496C17.338 14.895 16.4415 15.3655 14.6484 16.3064L12.9818 17.181C11.5187 17.9488 10.7872 18.3327 10.0003 18.3327C9.21343 18.3327 8.48192 17.9488 7.0189 17.181L5.35224 16.3064C3.55918 15.3655 2.66265 14.895 2.16482 14.0496C1.66699 13.2041 1.66699 12.1521 1.66699 10.0481V9.95061C1.66699 7.84657 1.66699 6.79456 2.16482 5.94913C2.66265 5.10371 3.55918 4.63323 5.35224 3.69228L7.0189 2.81765C8.48192 2.04989 9.21343 1.66602 10.0003 1.66602C10.7872 1.66602 11.5187 2.0499 12.9818 2.81766Z" stroke="#E42222" stroke-width="1.5" stroke-linecap="round"/>
<path d="M17.5 6.25L14.1667 7.91667M10 10L2.5 6.25M10 10V17.9167M10 10C10 10 12.2855 8.85723 13.75 8.125C13.9127 8.04364 14.1667 7.91667 14.1667 7.91667M14.1667 7.91667V10.8333M14.1667 7.91667L6.25 3.75" stroke="#E42222" stroke-width="1.5" stroke-linecap="round"/>
</g>
<defs>
<clipPath id="clip0_1618_2813">
<rect width="20" height="20" fill="white"/>
</clipPath>
</defs>
</svg>
