<svg width="20" height="19" viewBox="0 0 20 19" fill="none" xmlns="http://www.w3.org/2000/svg">
<rect width="19" height="19" transform="translate(0.658936)" fill="white"/>
<path d="M15.6825 3.97647L16.1023 3.55663L16.1023 3.55663L15.6825 3.97647ZM15.6825 11.7091L16.1023 12.1289L16.1023 12.1289L15.6825 11.7091ZM6.31586 10.0291L5.89601 9.60927L5.89601 9.60927L6.31586 10.0291ZM3.37712 12.9679L3.79696 13.3877L3.79696 13.3877L3.37712 12.9679ZM6.69108 16.2818L6.27124 15.862L6.27124 15.862L6.69108 16.2818ZM9.63004 13.3429L9.2102 12.923L9.2102 12.923L9.63004 13.3429ZM3.04111 13.9257L2.45099 13.9913L2.45099 13.9913L3.04111 13.9257ZM3.22483 15.5792L2.63471 15.6448L2.63471 15.6448L3.22483 15.5792ZM4.07974 16.4341L4.01417 17.0242L4.01417 17.0242L4.07974 16.4341ZM5.7332 16.6178L5.79877 16.0277L5.79877 16.0277L5.7332 16.6178ZM3.44883 16.0453L3.86868 15.6254L3.86868 15.6254L3.44883 16.0453ZM3.61367 16.2101L3.19382 16.6299L3.19382 16.6299L3.61367 16.2101ZM6.52069 9.20797L5.9456 9.35565L5.9456 9.35565L6.52069 9.20797ZM10.451 13.1382L10.3033 13.7133L10.3033 13.7133L10.451 13.1382ZM6.70594 13.5082C6.47279 13.2776 6.09686 13.2796 5.86626 13.5128C5.63567 13.7459 5.63773 14.1219 5.87088 14.3525L6.70594 13.5082ZM10.6227 9.03625L11.0425 8.61641C10.6561 8.22995 10.6561 7.60338 11.0425 7.21693L10.6227 6.79708L10.2028 6.37724C9.35264 7.22744 9.35264 8.60589 10.2028 9.4561L10.6227 9.03625ZM12.8619 9.03625L12.442 8.61641C12.0556 9.00286 11.429 9.00286 11.0425 8.61641L10.6227 9.03625L10.2028 9.4561C11.053 10.3063 12.4315 10.3063 13.2817 9.4561L12.8619 9.03625ZM12.8619 6.79708L12.442 7.21693C12.8285 7.60338 12.8285 8.22995 12.442 8.61641L12.8619 9.03625L13.2817 9.4561C14.1319 8.60589 14.1319 7.22744 13.2817 6.37724L12.8619 6.79708ZM12.8619 6.79708L13.2817 6.37724C12.4315 5.52703 11.053 5.52703 10.2028 6.37724L10.6227 6.79708L11.0425 7.21693C11.429 6.83047 12.0556 6.83047 12.442 7.21693L12.8619 6.79708ZM15.6825 3.97647L15.2626 4.39632C17.166 6.29974 17.166 9.3858 15.2626 11.2892L15.6825 11.7091L16.1023 12.1289C18.4695 9.76174 18.4695 5.9238 16.1023 3.55663L15.6825 3.97647ZM15.6825 3.97647L16.1023 3.55663C13.7351 1.18946 9.8972 1.18946 7.53003 3.55663L7.94987 3.97647L8.36972 4.39632C10.2731 2.49289 13.3592 2.49289 15.2626 4.39632L15.6825 3.97647ZM6.31586 10.0291L5.89601 9.60927L2.95727 12.548L3.37712 12.9679L3.79696 13.3877L6.7357 10.449L6.31586 10.0291ZM6.69108 16.2818L7.11093 16.7017L8.09291 15.7197L7.67307 15.2998L7.25322 14.88L6.27124 15.862L6.69108 16.2818ZM7.67307 15.2998L8.09291 15.7197L10.0499 13.7627L9.63004 13.3429L9.2102 12.923L7.25322 14.88L7.67307 15.2998ZM3.04111 13.9257L2.45099 13.9913L2.63471 15.6448L3.22483 15.5792L3.81495 15.5136L3.63123 13.8602L3.04111 13.9257ZM4.07974 16.4341L4.01417 17.0242L5.66763 17.2079L5.7332 16.6178L5.79877 16.0277L4.14531 15.844L4.07974 16.4341ZM3.44883 16.0453L3.02899 16.4651L3.19382 16.6299L3.61367 16.2101L4.03352 15.7903L3.86868 15.6254L3.44883 16.0453ZM4.07974 16.4341L4.14531 15.844C4.10302 15.8393 4.06359 15.8203 4.03351 15.7903L3.61367 16.2101L3.19382 16.6299C3.41458 16.8507 3.70389 16.9898 4.01417 17.0242L4.07974 16.4341ZM3.22483 15.5792L2.63471 15.6448C2.66919 15.955 2.80823 16.2444 3.02899 16.4651L3.44883 16.0453L3.86868 15.6254C3.8386 15.5953 3.81965 15.5559 3.81495 15.5136L3.22483 15.5792ZM6.69108 16.2818L6.27124 15.862C6.1471 15.9861 5.97326 16.0471 5.79877 16.0277L5.7332 16.6178L5.66763 17.2079C6.20066 17.2672 6.7317 17.0809 7.11093 16.7017L6.69108 16.2818ZM3.37712 12.9679L2.95727 12.548C2.57805 12.9272 2.39177 13.4583 2.45099 13.9913L3.04111 13.9257L3.63123 13.8602C3.61184 13.6857 3.67282 13.5118 3.79696 13.3877L3.37712 12.9679ZM6.52069 9.20797L7.09578 9.06029C6.68079 7.44428 7.10637 5.65967 8.36972 4.39632L7.94987 3.97647L7.53003 3.55663C5.95773 5.12893 5.43051 7.34984 5.9456 9.35565L6.52069 9.20797ZM15.6825 11.7091L15.2626 11.2892C13.9993 12.5526 12.2147 12.9781 10.5986 12.5632L10.451 13.1382L10.3033 13.7133C12.3091 14.2284 14.53 13.7012 16.1023 12.1289L15.6825 11.7091ZM9.63004 13.3429L10.0499 13.7627C10.0941 13.7185 10.1846 13.6829 10.3033 13.7133L10.451 13.1382L10.5987 12.5632C10.1332 12.4436 9.59247 12.5407 9.2102 12.923L9.63004 13.3429ZM6.31586 10.0291L6.7357 10.449C7.1178 10.0669 7.21537 9.52601 7.09578 9.06029L6.52069 9.20797L5.9456 9.35565C5.976 9.47406 5.94036 9.56492 5.89601 9.60927L6.31586 10.0291ZM7.67307 15.2998L8.0906 14.8777L6.70594 13.5082L6.28841 13.9303L5.87088 14.3525L7.25554 15.722L7.67307 15.2998Z" fill="#898989"/>
</svg>
