<svg width="20" height="19" viewBox="0 0 20 19" fill="none" xmlns="http://www.w3.org/2000/svg">
<path d="M13.4054 10.5759L12.9868 10.1549L12.9868 10.1549L13.4054 10.5759ZM13.766 10.2174L14.1846 10.6384L14.1846 10.6384L13.766 10.2174ZM15.6792 9.96663L15.3956 10.4883L15.3956 10.4883L15.6792 9.96663ZM17.1916 10.7888L16.9081 11.3105L17.1916 10.7888ZM17.6178 13.3657L18.0365 13.7867L18.0365 13.7867L17.6178 13.3657ZM16.4932 14.4839L16.0746 14.0629L16.0746 14.0629L16.4932 14.4839ZM15.4444 15.0141L15.4995 15.6053L15.4995 15.6053L15.4444 15.0141ZM7.63784 11.6585L8.05649 11.2375L7.63784 11.6585ZM3.82797 4.54862L3.23518 4.5823L3.23518 4.58231L3.82797 4.54862ZM8.95372 5.69794L9.37237 6.11898L9.37237 6.11898L8.95372 5.69794ZM9.07779 3.59693L9.55311 3.2411L9.55311 3.2411L9.07779 3.59693ZM8.07951 2.26345L7.6042 2.61928L7.6042 2.61928L8.07951 2.26345ZM5.616 2.03842L6.03465 2.45945L6.03465 2.45945L5.616 2.03842ZM4.3734 3.27396L3.95475 2.85292L3.95475 2.85292L4.3734 3.27396ZM10.209 9.10199L10.6276 8.68095L10.6276 8.68095L10.209 9.10199ZM13.4054 10.5759L13.8241 10.9969L14.1846 10.6384L13.766 10.2174L13.3473 9.79635L12.9868 10.1549L13.4054 10.5759ZM15.6792 9.96663L15.3956 10.4883L16.9081 11.3105L17.1916 10.7888L17.4752 10.2672L15.9627 9.44497L15.6792 9.96663ZM17.6178 13.3657L17.1992 12.9447L16.0746 14.0629L16.4932 14.4839L16.9119 14.9049L18.0365 13.7867L17.6178 13.3657ZM15.4444 15.0141L15.3893 14.4229C14.2415 14.5299 11.2718 14.4346 8.05649 11.2375L7.63784 11.6585L7.2192 12.0796C10.7279 15.5684 14.0674 15.7388 15.4995 15.6053L15.4444 15.0141ZM7.63784 11.6585L8.05649 11.2375C4.99165 8.19007 4.48396 5.6269 4.42076 4.51493L3.82797 4.54862L3.23518 4.58231C3.31471 5.98184 3.94335 8.82233 7.2192 12.0796L7.63784 11.6585ZM8.72666 5.92371L9.1453 6.34475L9.37237 6.11898L8.95372 5.69794L8.53507 5.2769L8.30801 5.50267L8.72666 5.92371ZM9.07779 3.59693L9.55311 3.2411L8.55482 1.90762L8.07951 2.26345L7.6042 2.61928L8.60248 3.95277L9.07779 3.59693ZM5.616 2.03842L5.19735 1.61738L3.95475 2.85292L4.3734 3.27396L4.79205 3.695L6.03465 2.45945L5.616 2.03842ZM8.72666 5.92371C8.30801 5.50267 8.30744 5.50324 8.30688 5.5038C8.30668 5.504 8.30611 5.50457 8.30572 5.50496C8.30495 5.50574 8.30416 5.50654 8.30335 5.50735C8.30175 5.50899 8.30009 5.51069 8.29838 5.51247C8.29495 5.51602 8.29132 5.51987 8.2875 5.52401C8.27987 5.5323 8.27149 5.54179 8.26251 5.5525C8.24456 5.57392 8.22422 5.60029 8.20285 5.63183C8.16 5.69508 8.1133 5.7787 8.07368 5.88387C7.99282 6.09845 7.94948 6.38131 8.00382 6.73159C8.1101 7.4166 8.58187 8.32142 9.79034 9.52303L10.209 9.10199L10.6276 8.68095C9.49672 7.55646 9.22733 6.87214 9.17729 6.54954C9.15347 6.39601 9.17818 6.32044 9.18492 6.30256C9.18909 6.29149 9.19107 6.29036 9.18595 6.29791C9.18345 6.30161 9.17923 6.3074 9.1727 6.3152C9.16943 6.3191 9.16557 6.32352 9.16104 6.32844C9.15877 6.3309 9.15633 6.33349 9.15371 6.33621C9.15241 6.33757 9.15105 6.33896 9.14965 6.34038C9.14895 6.3411 9.14824 6.34181 9.14751 6.34254C9.14715 6.34291 9.1466 6.34346 9.14642 6.34364C9.14586 6.34419 9.1453 6.34475 8.72666 5.92371ZM10.209 9.10199L9.79034 9.52303C10.9992 10.725 11.9082 11.1929 12.5945 11.2981C12.945 11.3519 13.2278 11.309 13.4422 11.2291C13.5474 11.1899 13.6311 11.1437 13.6945 11.1013C13.7261 11.0801 13.7525 11.0599 13.774 11.0421C13.7848 11.0332 13.7943 11.0249 13.8026 11.0173C13.8068 11.0135 13.8106 11.0099 13.8142 11.0065C13.816 11.0048 13.8177 11.0032 13.8194 11.0016C13.8202 11.0008 13.821 11 13.8218 10.9992C13.8222 10.9988 13.8227 10.9983 13.8229 10.9981C13.8235 10.9975 13.8241 10.9969 13.4054 10.5759C12.9868 10.1549 12.9873 10.1543 12.9879 10.1538C12.9881 10.1536 12.9886 10.153 12.989 10.1527C12.9897 10.152 12.9904 10.1512 12.9912 10.1505C12.9926 10.1492 12.994 10.1478 12.9954 10.1465C12.9981 10.1439 13.0007 10.1415 13.0032 10.1392C13.0081 10.1347 13.0125 10.1309 13.0164 10.1277C13.0242 10.1212 13.03 10.1171 13.0336 10.1147C13.041 10.1097 13.0394 10.1119 13.0277 10.1163C13.0083 10.1235 12.9306 10.1483 12.7745 10.1243C12.4473 10.0742 11.7581 9.80504 10.6276 8.68095L10.209 9.10199ZM8.07951 2.26345L8.55482 1.90762C7.74787 0.829696 6.16107 0.659128 5.19735 1.61738L5.616 2.03842L6.03465 2.45945C6.45556 2.04093 7.20312 2.08352 7.6042 2.61928L8.07951 2.26345ZM3.82797 4.54862L4.42076 4.51493C4.40519 4.24092 4.53086 3.9547 4.79205 3.695L4.3734 3.27396L3.95475 2.85292C3.52937 3.27589 3.19496 3.87462 3.23518 4.5823L3.82797 4.54862ZM16.4932 14.4839L16.0746 14.0629C15.857 14.2792 15.6238 14.401 15.3893 14.4229L15.4444 15.0141L15.4995 15.6053C16.081 15.5511 16.5576 15.2573 16.9119 14.9049L16.4932 14.4839ZM8.95372 5.69794L9.37237 6.11898C10.1518 5.344 10.2097 4.11818 9.55311 3.2411L9.07779 3.59693L8.60248 3.95277C8.92191 4.37945 8.87438 4.93952 8.53507 5.2769L8.95372 5.69794ZM17.1916 10.7888L16.9081 11.3105C17.5555 11.6624 17.6563 12.4901 17.1992 12.9447L17.6178 13.3657L18.0365 13.7867C19.0976 12.7317 18.7704 10.9712 17.4752 10.2672L17.1916 10.7888ZM13.766 10.2174L14.1846 10.6384C14.4886 10.3361 14.9779 10.2612 15.3956 10.4883L15.6792 9.96663L15.9627 9.44497C15.1049 8.97863 14.0402 9.10741 13.3473 9.79635L13.766 10.2174Z" fill="#898989"/>
</svg>
