<svg width="17" height="16" viewBox="0 0 17 16" fill="none" xmlns="http://www.w3.org/2000/svg">
<path d="M4.52603 5.182C2.88625 5.55302 2.06635 5.73853 1.87129 6.36581C1.67622 6.99308 2.23517 7.6467 3.35307 8.95394L3.64229 9.29213C3.95996 9.66361 4.11879 9.84935 4.19025 10.0791C4.26171 10.3089 4.23769 10.5567 4.18966 11.0524L4.14594 11.5036C3.97693 13.2477 3.89242 14.1198 4.40311 14.5075C4.91379 14.8951 5.68146 14.5417 7.21679 13.8348L7.614 13.6519C8.05029 13.451 8.26844 13.3506 8.49967 13.3506C8.73091 13.3506 8.94906 13.451 9.38535 13.6519L9.78256 13.8348C11.3179 14.5417 12.0856 14.8951 12.5962 14.5075C13.1069 14.1198 13.0224 13.2477 12.8534 11.5036M13.6463 8.95393C14.7642 7.6467 15.3231 6.99308 15.1281 6.36581C14.933 5.73853 14.1131 5.55302 12.4733 5.182L12.0491 5.08602C11.5831 4.98058 11.3501 4.92787 11.163 4.78586C10.976 4.64384 10.856 4.42861 10.616 3.99814L10.3976 3.60623C9.55313 2.0914 9.13092 1.33398 8.49967 1.33398C7.86843 1.33398 7.44622 2.0914 6.60178 3.60623" stroke="#F5BD4F" stroke-linecap="round"/>
</svg>
