<svg width="208" height="207" viewBox="0 0 208 207" fill="none" xmlns="http://www.w3.org/2000/svg">
<circle opacity="0.08" cx="104" cy="103.092" r="103.092" transform="rotate(-180 104 103.092)" fill="#FFB016"/>
<circle opacity="0.08" cx="104" cy="103.092" r="80.4555" transform="rotate(-180 104 103.092)" fill="#FFB016"/>
<circle opacity="0.08" cx="104" cy="103.092" r="54.4734" transform="rotate(-180 104 103.092)" fill="#FFB016"/>
<ellipse opacity="0.08" cx="104" cy="103.092" rx="29.1724" ry="29.1724" transform="rotate(-180 104 103.092)" fill="#FFB016"/>
<path d="M117.19 98.2435C113.289 93.5761 111.338 91.2423 109.096 91.6018C106.854 91.9612 105.805 94.7758 103.707 100.405L103.165 101.861C102.569 103.461 102.271 104.261 101.691 104.85C101.111 105.439 100.314 105.751 98.7221 106.375L97.2724 106.942C91.6688 109.137 88.867 110.234 88.5475 112.477C88.2279 114.72 90.6023 116.623 95.3509 120.43L96.5794 121.414C97.9289 122.496 98.6036 123.037 98.9941 123.777C99.3847 124.517 99.4469 125.373 99.5712 127.085L99.6845 128.643C100.122 134.667 100.341 137.679 102.386 138.706C104.43 139.733 106.947 138.094 111.979 134.817L113.281 133.97C114.711 133.039 115.426 132.573 116.248 132.441C117.069 132.31 117.904 132.527 119.573 132.961L121.093 133.356C126.967 134.885 129.904 135.649 131.487 134.04C133.07 132.432 132.251 129.516 130.613 123.685L130.189 122.176C129.723 120.519 129.49 119.691 129.607 118.869C129.725 118.047 130.178 117.326 131.085 115.882L131.911 114.568C135.104 109.489 136.7 106.949 135.634 104.928C134.568 102.908 131.546 102.744 125.5 102.417L123.936 102.332C122.219 102.239 121.36 102.193 120.611 101.817C119.862 101.441 119.307 100.777 118.199 99.451L117.19 98.2435Z" fill="#FFBD3A"/>
<path d="M115.712 76.412L116.436 78.4751C117.231 80.7412 117.628 81.8743 118.402 82.709C119.175 83.5437 120.236 83.9854 122.359 84.8689L124.292 85.6733C131.764 88.7825 135.5 90.3371 135.926 93.5146C136.103 94.8372 135.658 96.0764 134.621 97.4614C134.271 97.3666 133.934 97.2893 133.617 97.2249C131.536 96.8019 128.89 96.6593 126.194 96.514L124.257 96.4093C123.885 96.3891 123.596 96.3734 123.348 96.3573C123.183 96.165 122.994 95.9387 122.75 95.6468L121.502 94.1536C119.761 92.0694 118.057 90.0301 116.473 88.6144C114.784 87.1046 111.96 85.1354 108.158 85.7449C104.316 86.3609 102.267 89.1564 101.161 91.1517C100.136 93.0004 99.2152 95.4744 98.2824 97.9794L97.608 99.7892C97.4941 100.095 97.4027 100.34 97.3222 100.551C97.1114 100.635 96.8661 100.731 96.5598 100.851L94.7589 101.557C92.2646 102.533 89.8036 103.496 87.9712 104.55C85.9993 105.685 83.2265 107.781 82.6767 111.64C82.1321 115.463 84.168 118.253 85.709 119.908C86.8576 121.141 88.4008 122.442 90.0484 123.776C83.8468 125.458 80.548 126.086 78.6731 124.062C76.5622 121.784 77.6544 117.653 79.8388 109.392L80.4039 107.255C81.0247 104.907 81.335 103.733 81.179 102.569C81.0229 101.405 80.418 100.383 79.2084 98.3382L78.107 96.4766C73.8501 89.2809 71.7216 85.683 73.1432 82.8202C74.5647 79.9574 78.5948 79.7257 86.6551 79.2622L88.7404 79.1423C91.0308 79.0106 92.1761 78.9447 93.1747 78.4119C94.1734 77.879 94.9124 76.9395 96.3904 75.0606L97.736 73.3499C102.937 66.7377 105.538 63.4315 108.527 63.9408C111.517 64.45 112.915 68.4373 115.712 76.412Z" fill="#FFBD3A"/>
</svg>
