<svg width="25" height="24" viewBox="0 0 25 24" fill="none" xmlns="http://www.w3.org/2000/svg">
<path d="M9.14362 18.9109L9.61519 18.3127L9.14362 18.9109ZM12.1819 5.50063L11.6331 6.02886C11.7767 6.17805 11.9748 6.26235 12.1819 6.26235C12.389 6.26235 12.5871 6.17805 12.7307 6.02886L12.1819 5.50063ZM15.2202 18.9109L15.6917 19.5091L15.6917 19.5091L15.2202 18.9109ZM9.14362 18.9109L9.61519 18.3127C8.09883 17.1173 6.44281 15.9515 5.12893 14.472C3.84117 13.0219 2.9436 11.3308 2.9436 9.1371H2.18188H1.42017C1.42017 11.8063 2.53231 13.8424 3.98984 15.4836C5.42125 17.0954 7.24609 18.385 8.67205 19.5091L9.14362 18.9109ZM2.18188 9.1371H2.9436C2.9436 6.99061 4.15648 5.19119 5.81111 4.43485C7.41773 3.70046 9.5781 3.89382 11.6331 6.02886L12.1819 5.50063L12.7307 4.97241C10.2858 2.43228 7.4462 2.0124 5.17778 3.0493C2.95737 4.06425 1.42017 6.42065 1.42017 9.1371H2.18188ZM9.14362 18.9109L8.67205 19.5091C9.18418 19.9128 9.7347 20.3439 10.2928 20.67C10.8506 20.996 11.4885 21.2617 12.1819 21.2617V20.5V19.7383C11.8753 19.7383 11.5131 19.6187 11.0614 19.3547C10.6099 19.0909 10.1413 18.7274 9.61519 18.3127L9.14362 18.9109ZM15.2202 18.9109L15.6917 19.5091C17.1177 18.385 18.9425 17.0954 20.3739 15.4836C21.8315 13.8424 22.9436 11.8063 22.9436 9.1371H22.1819H21.4202C21.4202 11.3308 20.5226 13.0219 19.2348 14.472C17.921 15.9515 16.2649 17.1173 14.7486 18.3127L15.2202 18.9109ZM22.1819 9.1371H22.9436C22.9436 6.42065 21.4064 4.06425 19.186 3.0493C16.9176 2.0124 14.0779 2.43228 11.6331 4.97241L12.1819 5.50063L12.7307 6.02886C14.7857 3.89382 16.946 3.70046 18.5527 4.43485C20.2073 5.19119 21.4202 6.99061 21.4202 9.1371H22.1819ZM15.2202 18.9109L14.7486 18.3127C14.2224 18.7274 13.7538 19.0909 13.3024 19.3547C12.8506 19.6187 12.4885 19.7383 12.1819 19.7383V20.5V21.2617C12.8753 21.2617 13.5131 20.996 14.071 20.67C14.6291 20.3439 15.1796 19.9128 15.6917 19.5091L15.2202 18.9109Z" fill="#333333"/>
</svg>
