<svg width="208" height="207" viewBox="0 0 208 207" fill="none" xmlns="http://www.w3.org/2000/svg">
<circle opacity="0.08" cx="103.999" cy="103.092" r="103.092" transform="rotate(-180 103.999 103.092)" fill="#E42222" fill-opacity="0.87"/>
<circle opacity="0.08" cx="104" cy="103.092" r="80.4555" transform="rotate(-180 104 103.092)" fill="#E42222" fill-opacity="0.87"/>
<circle opacity="0.08" cx="103.999" cy="103.092" r="54.4734" transform="rotate(-180 103.999 103.092)" fill="#E42222" fill-opacity="0.87"/>
<ellipse opacity="0.08" cx="103.999" cy="103.092" rx="29.1724" ry="29.1724" transform="rotate(-180 103.999 103.092)" fill="#E42222" fill-opacity="0.87"/>
<path d="M88.9394 128.124C77.837 119.57 64.7969 109.523 64.7969 92.1067C64.7969 73.9174 84.2595 60.7326 101.424 75.0133L95.678 88.4201C95.1291 89.7009 95.546 91.1912 96.68 92.0011L107.882 100.002L98.129 111.381C97.1206 112.557 97.188 114.312 98.2836 115.407L105.004 122.128L101.406 136.519C98.4206 135.518 95.414 133.187 92.3216 130.749C91.2264 129.886 90.0933 129.013 88.9394 128.124Z" fill="#E42222"/>
<path d="M107.544 136.421C110.437 135.371 113.351 133.111 116.347 130.749C117.442 129.886 118.575 129.013 119.729 128.124C130.831 119.57 143.871 109.523 143.871 92.1067C143.871 74.2561 125.127 61.2252 108.205 74.2441L102.069 88.5625L113.965 97.0595C114.642 97.5431 115.085 98.2888 115.185 99.1146C115.286 99.9405 115.034 100.771 114.493 101.402L104.419 113.155L110.385 119.121C111.121 119.858 111.417 120.927 111.165 121.937L107.544 136.421Z" fill="#E42222"/>
</svg>
