<svg width="16" height="17" viewBox="0 0 16 17" fill="none" xmlns="http://www.w3.org/2000/svg">
<path d="M6.10203 4.10575C6.94646 2.59091 7.36868 1.8335 7.99992 1.8335C8.63116 1.8335 9.05338 2.59091 9.89781 4.10575L10.1163 4.49765C10.3562 4.92812 10.4762 5.14335 10.6633 5.28537C10.8504 5.42738 11.0834 5.4801 11.5493 5.58553L11.9736 5.68151C13.6133 6.05253 14.4332 6.23804 14.6283 6.86532C14.8234 7.49259 14.2644 8.14621 13.1465 9.45344L12.8573 9.79164C12.5396 10.1631 12.3808 10.3489 12.3093 10.5786C12.2379 10.8084 12.2619 11.0562 12.3099 11.5519L12.3537 12.0031C12.5227 13.7472 12.6072 14.6193 12.0965 15.007C11.5858 15.3947 10.8181 15.0412 9.2828 14.3343L8.88559 14.1514C8.4493 13.9505 8.23115 13.8501 7.99992 13.8501C7.76868 13.8501 7.55054 13.9505 7.11424 14.1514L6.71703 14.3343C5.1817 15.0412 4.41404 15.3947 3.90335 15.007C3.39267 14.6193 3.47717 13.7472 3.64618 12.0031L3.68991 11.5519C3.73794 11.0562 3.76195 10.8084 3.69049 10.5786C3.61904 10.3489 3.4602 10.1631 3.14253 9.79164L2.85332 9.45345C1.73542 8.14621 1.17647 7.49259 1.37153 6.86532C1.5666 6.23804 2.38649 6.05253 4.02628 5.68152L4.45051 5.58553C4.91649 5.4801 5.14947 5.42738 5.33655 5.28537C5.52362 5.14335 5.6436 4.92812 5.88356 4.49765L6.10203 4.10575Z" fill="#FFCC00"/>
</svg>
