<svg width="17" height="16" viewBox="0 0 17 16" fill="none" xmlns="http://www.w3.org/2000/svg">
<path d="M2.95288 7.55556H2.45288V7.55556L2.95288 7.55556ZM2.95288 8.66667L2.60072 9.02161C2.79566 9.21502 3.1101 9.21502 3.30504 9.02161L2.95288 8.66667ZM4.42492 7.9105C4.62095 7.716 4.62219 7.39942 4.4277 7.20339C4.2332 7.00737 3.91662 7.00612 3.72059 7.20062L4.42492 7.9105ZM2.18517 7.20062C1.98914 7.00612 1.67256 7.00737 1.47807 7.20339C1.28357 7.39942 1.28482 7.716 1.48085 7.9105L2.18517 7.20062ZM12.91 4.92853C13.0547 5.16377 13.3626 5.23723 13.5979 5.09261C13.8331 4.94799 13.9066 4.64005 13.7619 4.40481L12.91 4.92853ZM11.7617 2.40525C11.5266 2.26051 11.2186 2.33383 11.0739 2.569C10.9291 2.80417 11.0024 3.11215 11.2376 3.25688L11.7617 2.40525ZM8.80854 2.50626C9.08435 2.51978 9.3189 2.30714 9.33241 2.03133C9.34592 1.75552 9.13329 1.52097 8.85748 1.50746L8.80854 2.50626ZM8.55225 2V1.5C5.18737 1.5 2.45288 4.20747 2.45288 7.55556H2.95288H3.45288C3.45288 4.76714 5.73224 2.5 8.55225 2.5V2ZM2.95288 7.55556L2.45288 7.55556L2.45288 8.66667H2.95288L3.45288 8.66667L3.45288 7.55556H2.95288ZM2.95288 8.66667L3.30504 9.02161L4.42492 7.9105L4.07276 7.55556L3.72059 7.20062L2.60072 8.31173L2.95288 8.66667ZM2.95288 8.66667L3.30504 8.31173L2.18517 7.20062L1.83301 7.55556L1.48085 7.9105L2.60072 9.02161L2.95288 8.66667ZM13.336 4.66667L13.7619 4.40481C13.2624 3.59231 12.5758 2.90628 11.7617 2.40525L11.4997 2.83106L11.2376 3.25688C11.9188 3.67613 12.4929 4.25004 12.91 4.92853L13.336 4.66667ZM8.83301 2.00686L8.85748 1.50746C8.75632 1.50251 8.65456 1.5 8.55225 1.5V2V2.5C8.63824 2.5 8.72368 2.50211 8.80854 2.50626L8.83301 2.00686Z" fill="#007AFF"/>
<path d="M8.42215 14.0007V14.5007V14.0007ZM14.0429 8.4451H14.5429H14.0429ZM14.0429 7.33398L14.3944 6.97837C14.1996 6.78585 13.8862 6.78585 13.6914 6.97837L14.0429 7.33398ZM12.5673 8.08948C12.3709 8.2836 12.369 8.60018 12.5632 8.79658C12.7573 8.99298 13.0739 8.99483 13.2703 8.80071L12.5673 8.08948ZM14.8156 8.80071C15.012 8.99483 15.3286 8.99298 15.5227 8.79658C15.7168 8.60018 15.715 8.2836 15.5186 8.08948L14.8156 8.80071ZM4.04562 11.0714C3.90059 10.8364 3.59253 10.7635 3.35753 10.9085C3.12254 11.0535 3.0496 11.3616 3.19462 11.5966L4.04562 11.0714ZM8.1892 13.4955C7.91332 13.4833 7.67982 13.6971 7.66764 13.973C7.65547 14.2489 7.86924 14.4824 8.14511 14.4945L8.1892 13.4955ZM5.24243 13.6204C5.47896 13.7629 5.78623 13.6867 5.92875 13.4501C6.07127 13.2136 5.99506 12.9064 5.75854 12.7638L5.24243 13.6204ZM8.42215 14.0007V14.5007C11.797 14.5007 14.5429 11.795 14.5429 8.4451H14.0429H13.5429C13.5429 11.2317 11.2558 13.5007 8.42215 13.5007V14.0007ZM14.0429 8.4451H14.5429V7.33398H14.0429H13.5429V8.4451H14.0429ZM14.0429 7.33398L13.6914 6.97837L12.5673 8.08948L12.9188 8.4451L13.2703 8.80071L14.3944 7.6896L14.0429 7.33398ZM14.0429 7.33398L13.6914 7.6896L14.8156 8.80071L15.1671 8.4451L15.5186 8.08948L14.3944 6.97837L14.0429 7.33398ZM8.16716 13.995L8.14511 14.4945C8.23698 14.4986 8.32934 14.5007 8.42215 14.5007V14.0007V13.5007C8.34404 13.5007 8.26638 13.4989 8.1892 13.4955L8.16716 13.995ZM3.62012 11.334L3.19462 11.5966C3.70428 12.4224 4.40786 13.1175 5.24243 13.6204L5.50049 13.1921L5.75854 12.7638C5.05964 12.3427 4.47117 11.761 4.04562 11.0714L3.62012 11.334Z" fill="#007AFF"/>
</svg>
